<svg width="341" height="341" viewBox="0 0 341 341" fill="none" xmlns="http://www.w3.org/2000/svg">
<path d="M334.055 182.39C333.891 185.045 332.882 187.267 331.028 189.056L328.873 186.969C330.212 185.729 330.941 184.151 331.059 182.235C331.176 180.339 330.531 178.615 329.124 177.066C327.736 175.537 325.964 174.706 323.808 174.573C321.652 174.44 319.781 175.045 318.195 176.39C316.628 177.756 315.786 179.387 315.668 181.284C315.552 183.16 316.1 184.837 317.311 186.315L314.917 188.09C313.26 186.044 312.513 183.704 312.676 181.069C312.784 179.312 313.327 177.662 314.304 176.12C315.301 174.578 316.66 173.34 318.381 172.404C320.102 171.468 321.971 171.063 323.987 171.188C326.023 171.313 327.838 171.947 329.43 173.087C331.043 174.229 332.239 175.625 333.019 177.276C333.818 178.929 334.164 180.633 334.055 182.39Z" fill="#1C1C1C"/>
<path d="M328.363 215.414L307.83 211.007L308.485 207.957L322.183 210.896L309.838 201.651L310.373 199.157L325.383 195.843L311.714 192.909L312.368 189.859L332.901 194.265L332.272 197.198L314.385 201.338L328.998 212.451L328.363 215.414Z" fill="#1C1C1C"/>
<path d="M323.224 230.198C322.216 232.767 320.375 234.666 317.702 235.894C315.028 237.122 312.267 237.177 309.419 236.059C306.57 234.942 304.584 233.023 303.459 230.305C302.334 227.586 302.276 224.942 303.285 222.373C304.271 219.859 306.108 217.97 308.796 216.704C311.503 215.446 314.271 215.372 317.101 216.483C319.931 217.593 321.901 219.527 323.011 222.283C324.139 225.046 324.211 227.684 323.224 230.198ZM320.432 229.102C321.126 227.333 321.056 225.512 320.223 223.638C319.401 221.79 317.948 220.457 315.863 219.639C313.778 218.82 311.796 218.805 309.918 219.594C308.052 220.408 306.771 221.7 306.077 223.469C305.347 225.33 305.4 227.167 306.236 228.977C307.072 230.788 308.542 232.106 310.646 232.932C312.75 233.757 314.724 233.791 316.569 233.032C318.413 232.274 319.701 230.963 320.432 229.102Z" fill="#1C1C1C"/>
<path d="M309.595 257.178L307.194 255.818L309.972 250.91L294.1 241.924L295.711 239.078L311.583 248.064L314.362 243.156L316.764 244.516L309.595 257.178Z" fill="#1C1C1C"/>
<path d="M302.614 267.21C301.266 269.049 299.704 270.148 297.927 270.508C296.139 270.883 294.471 270.504 292.923 269.368C291.374 268.233 290.51 266.757 290.33 264.939C290.138 263.137 290.716 261.316 292.064 259.477L294.405 256.283L288.018 251.601L289.862 249.085L306.799 261.5L302.614 267.21ZM294.397 260.964C293.569 262.093 293.185 263.175 293.244 264.211C293.292 265.262 293.799 266.143 294.767 266.852C295.735 267.562 296.727 267.781 297.745 267.51C298.75 267.254 299.666 266.562 300.494 265.433L302.729 262.385L296.631 257.915L294.397 260.964Z" fill="#1C1C1C"/>
<path d="M279.325 267.067L272.4 274.515L270.401 272.656L279.491 262.879L294.87 277.179L285.984 286.736L283.984 284.877L290.705 277.649L285.96 273.236L281.282 278.267L279.283 276.408L283.961 271.377L279.325 267.067Z" fill="#1C1C1C"/>
<path d="M271.547 299.539L269.75 297.444L274.03 293.772L262.154 279.929L264.636 277.799L276.512 291.643L280.793 287.971L282.59 290.065L271.547 299.539Z" fill="#1C1C1C"/>
<path d="M249.782 289.217L255.685 285.307L267.281 302.815L264.68 304.538L260.306 297.935L257.005 300.122C255.104 301.381 253.258 301.872 251.467 301.595C249.66 301.329 248.226 300.395 247.165 298.794C246.105 297.194 245.805 295.509 246.265 293.741C246.709 291.984 247.881 290.476 249.782 289.217ZM255.631 297.722L258.782 295.634L254.608 289.331L251.456 291.419C250.289 292.192 249.554 293.074 249.251 294.066C248.932 295.069 249.104 296.071 249.767 297.072C250.429 298.072 251.285 298.621 252.333 298.718C253.364 298.827 254.463 298.495 255.631 297.722Z" fill="#1C1C1C"/>
<path d="M228.161 313.729C226.652 313.815 225.389 313.565 224.374 312.979C223.358 312.394 222.613 311.55 222.137 310.448C221.368 308.667 221.385 307.015 222.187 305.493C222.971 303.978 224.501 302.729 226.778 301.746L233.718 298.749L242.043 318.028L235.268 320.954C233.431 321.747 231.804 321.938 230.385 321.527C228.973 321.134 227.923 320.139 227.233 318.541C226.44 316.705 226.75 315.101 228.161 313.729ZM235.888 311.569L231.95 313.27C229.875 314.166 229.214 315.486 229.967 317.23C230.332 318.075 230.88 318.612 231.61 318.841C232.341 319.07 233.211 318.966 234.221 318.53L238.16 316.83L235.888 311.569ZM227.576 304.277C226.218 304.863 225.334 305.593 224.927 306.466C224.502 307.347 224.519 308.32 224.978 309.385C225.399 310.358 226.096 311.015 227.072 311.357C228.028 311.706 229.168 311.595 230.49 311.024L234.842 309.145L231.928 302.397L227.576 304.277Z" fill="#1C1C1C"/>
<path d="M223.339 325.768L220.34 326.629L215.999 311.521L210.22 329.537L207.365 330.358L201.566 310.174L204.536 309.321L208.877 324.43L214.656 306.413L217.539 305.584L223.339 325.768Z" fill="#1C1C1C"/>
<path d="M177.067 316.31L176.47 311.638L179.476 311.254L179.738 313.307L196.462 311.169L196.2 309.116L199.205 308.731L199.802 313.403L197.392 313.711C197.016 315.03 196.889 316.719 197.012 318.781C197.137 320.862 197.455 323.906 197.968 327.913L198.5 332.079L182.372 334.141L180.043 315.929L177.067 316.31ZM194.446 314.088L183.049 315.545L185.046 331.168L195.164 329.874L194.962 328.297C194.617 325.599 194.376 323.553 194.238 322.16C194.083 320.788 194.007 319.326 194.01 317.773C194.015 316.24 194.161 315.012 194.446 314.088Z" fill="#1C1C1C"/>
<path d="M171.48 316.105L161.311 315.948L161.353 313.219L174.702 313.425L174.377 334.422L161.329 334.221L161.371 331.491L171.24 331.644L171.34 325.164L164.471 325.058L164.513 322.329L171.382 322.435L171.48 316.105Z" fill="#1C1C1C"/>
<path d="M145.695 332.72C142.967 332.307 140.707 330.934 138.916 328.599C137.125 326.265 136.458 323.585 136.916 320.56C137.374 317.534 138.804 315.172 141.205 313.472C143.606 311.772 146.171 311.128 148.9 311.541C151.57 311.945 153.82 313.317 155.65 315.658C157.478 318.018 158.164 320.701 157.709 323.706C157.255 326.712 155.807 329.062 153.366 330.756C150.922 332.469 148.365 333.124 145.695 332.72ZM146.144 329.754C148.023 330.038 149.783 329.566 151.426 328.338C153.045 327.127 154.022 325.414 154.358 323.199C154.693 320.984 154.268 319.049 153.082 317.393C151.874 315.754 150.33 314.792 148.452 314.508C146.474 314.208 144.695 314.667 143.115 315.885C141.535 317.102 140.576 318.828 140.238 321.063C139.9 323.297 140.306 325.229 141.455 326.86C142.604 328.49 144.167 329.455 146.144 329.754Z" fill="#1C1C1C"/>
<path d="M75.1713 304.238C72.9864 302.72 71.6099 300.705 71.0417 298.192L73.9439 297.432C74.3094 299.22 75.2807 300.661 76.8578 301.756C78.4184 302.84 80.2261 303.182 82.2809 302.783C84.3079 302.389 85.9373 301.304 87.1693 299.53C88.4014 297.756 88.8537 295.842 88.5265 293.789C88.1714 291.74 87.2136 290.174 85.653 289.091C84.1088 288.018 82.3909 287.617 80.4995 287.886L80.2229 284.918C82.8317 284.563 85.2203 285.138 87.3887 286.644C88.8344 287.647 89.9633 288.967 90.7756 290.603C91.5765 292.254 91.9306 294.059 91.8381 296.015C91.7455 297.972 91.1231 299.78 89.9709 301.439C88.8074 303.115 87.3251 304.338 85.524 305.108C83.7115 305.895 81.8972 306.193 80.0811 306.003C78.2535 305.83 76.6169 305.242 75.1713 304.238Z" fill="#1C1C1C"/>
<path d="M50.1115 282.494L64.4673 267.168L66.7444 269.301L57.167 279.526L71.4519 273.71L73.313 275.453L68.4199 290.025L77.9767 279.821L80.2539 281.954L65.8981 297.281L63.7085 295.23L69.3773 277.768L52.3229 284.566L50.1115 282.494Z" fill="#1C1C1C"/>
<path d="M39.9462 270.251C38.2661 268.062 37.5901 265.505 37.9182 262.581C38.2462 259.657 39.6241 257.264 42.0519 255.402C44.4797 253.539 47.148 252.828 50.057 253.268C52.966 253.708 55.2605 255.023 56.9406 257.213C58.5841 259.355 59.254 261.904 58.9503 264.859C58.6308 267.827 57.2651 270.236 54.8532 272.086C52.4412 273.937 49.7686 274.626 46.8353 274.154C43.8861 273.695 41.5897 272.394 39.9462 270.251ZM42.3264 268.425C43.4829 269.933 45.0786 270.813 47.1135 271.067C49.1204 271.317 51.0124 270.76 52.7896 269.397C54.5668 268.033 55.6024 266.344 55.8964 264.329C56.1623 262.31 55.717 260.546 54.5604 259.039C53.343 257.452 51.743 256.55 49.7605 256.331C47.778 256.113 45.8902 256.692 44.0972 258.067C42.3041 259.443 41.2564 261.117 40.9539 263.088C40.6514 265.059 41.1089 266.838 42.3264 268.425Z" fill="#1C1C1C"/>
<path d="M23.9716 244.859L26.3733 243.499L29.152 248.407L45.0247 239.421L46.6358 242.266L30.7631 251.253L33.5418 256.161L31.14 257.521L23.9716 244.859Z" fill="#1C1C1C"/>
<path d="M18.9756 233.741C18.0953 231.637 17.9591 229.732 18.5671 228.025C19.1674 226.299 20.3531 225.066 22.1242 224.325C23.8953 223.583 25.6061 223.604 27.2566 224.388C28.8994 225.153 30.1609 226.587 31.0413 228.69L32.5703 232.343L39.8761 229.285L41.0808 232.163L21.7092 240.271L18.9756 233.741ZM28.5648 229.922C28.0243 228.63 27.2951 227.743 26.3774 227.26C25.452 226.758 24.4358 226.739 23.3289 227.203C22.2219 227.666 21.5223 228.403 21.2301 229.415C20.9302 230.407 21.0505 231.549 21.5911 232.841L23.0505 236.328L30.0243 233.409L28.5648 229.922Z" fill="#1C1C1C"/>
<path d="M31.1612 214.048L28.3527 204.273L30.9765 203.519L34.6633 216.35L14.4799 222.15L10.876 209.607L13.4999 208.853L16.2256 218.339L22.4536 216.55L20.5563 209.947L23.1802 209.193L25.0774 215.796L31.1612 214.048Z" fill="#1C1C1C"/>
<path d="M7.36465 190.641L10.0869 190.186L11.0162 195.749L29.0069 192.744L29.5457 195.969L11.5549 198.974L12.4842 204.537L9.76192 204.992L7.36465 190.641Z" fill="#1C1C1C"/>
<path d="M27.4347 177.329L27.7352 184.402L6.75411 185.294L6.6217 182.176L14.5346 181.84L14.3665 177.884C14.2698 175.606 14.8024 173.772 15.9644 172.381C17.1256 170.971 18.6653 170.225 20.5836 170.143C22.5019 170.062 24.0993 170.674 25.3759 171.981C26.6517 173.268 27.338 175.051 27.4347 177.329ZM17.1317 177.947L17.2921 181.723L24.8453 181.402L24.6849 177.626C24.6254 176.227 24.2491 175.142 23.5557 174.371C22.8615 173.58 21.9149 173.209 20.716 173.26C19.5171 173.311 18.6053 173.76 17.9807 174.608C17.3553 175.435 17.0722 176.548 17.1317 177.947Z" fill="#1C1C1C"/>
<path d="M17.7001 145.297C18.4114 143.963 19.2809 143.014 20.3087 142.451C21.3364 141.887 22.4445 141.688 23.633 141.854C25.5544 142.122 26.9573 142.995 27.8417 144.471C28.7288 145.928 29.001 147.884 28.6582 150.34L27.6131 157.828L6.81473 154.925L7.83489 147.616C8.11136 145.635 8.79387 144.145 9.88243 143.146C10.9512 142.144 12.3472 141.763 14.0705 142.004C16.0513 142.28 17.2612 143.378 17.7001 145.297ZM15.5315 153.022L16.1245 148.773C16.4369 146.535 15.6523 145.284 13.7705 145.021C12.8593 144.894 12.1161 145.083 11.5407 145.589C10.9653 146.094 10.6016 146.891 10.4495 147.981L9.85653 152.23L15.5315 153.022ZM26.0808 149.708C26.2854 148.242 26.1206 147.109 25.5862 146.307C25.0547 145.486 24.2144 144.995 23.0656 144.834C22.0158 144.688 21.0917 144.943 20.2933 145.599C19.4978 146.235 19.0005 147.266 18.8014 148.692L18.1462 153.387L25.4256 154.403L26.0808 149.708Z" fill="#1C1C1C"/>
<path d="M9.8937 134.879L10.7212 131.87L25.8782 136.04L13.5139 121.717L14.3016 118.854L34.5496 124.423L33.7301 127.403L18.573 123.233L30.9373 137.556L30.1417 140.448L9.8937 134.879Z" fill="#1C1C1C"/>
<path d="M41.7904 100.743L46.0934 102.658L44.8612 105.426L42.9701 104.584L36.1137 119.987L38.0049 120.829L36.7727 123.597L32.4697 121.682L33.4579 119.462C32.5264 118.456 31.1481 117.471 29.3231 116.505C27.4798 115.531 24.7127 114.223 21.0218 112.58L17.1848 110.872L23.7971 96.0172L40.5704 103.484L41.7904 100.743ZM34.6657 116.749L39.3382 106.252L24.9494 99.8467L20.8014 109.165L22.254 109.812C24.7389 110.918 26.6128 111.774 27.8755 112.38C29.1281 112.959 30.4172 113.653 31.7428 114.462C33.0501 115.263 34.0244 116.025 34.6657 116.749Z" fill="#1C1C1C"/>
<path d="M44.6628 96.3014L50.0591 87.6811L52.3731 89.1297L45.2895 100.445L27.4895 89.3026L34.414 78.2412L36.728 79.6897L31.4909 88.0557L36.9834 91.4941L40.6287 85.6709L42.9427 87.1195L39.2974 92.9426L44.6628 96.3014Z" fill="#1C1C1C"/>
<path d="M43.7842 65.6106C45.5506 63.4899 47.896 62.2679 50.8203 61.9445C53.7446 61.6212 56.3823 62.4388 58.7335 64.3972C61.0847 66.3557 62.3656 68.8022 62.5763 71.7367C62.7869 74.6713 62.009 77.1989 60.2426 79.3196C58.5146 81.3942 56.1756 82.6085 53.2257 82.9625C50.2605 83.3038 47.6099 82.5016 45.2741 80.556C42.9383 78.6103 41.6778 76.1549 41.4928 73.1896C41.2924 70.2115 42.0562 67.6851 43.7842 65.6106ZM46.0893 67.5306C44.8733 68.9905 44.3654 70.7409 44.5656 72.7817C44.7632 74.7944 45.7226 76.5176 47.4437 77.9512C49.1649 79.3848 51.0408 80.0233 53.0714 79.8666C55.0994 79.6818 56.7215 78.8595 57.9375 77.3996C59.2175 75.8628 59.7459 74.1035 59.5227 72.1215C59.2995 70.1396 58.3196 68.4254 56.5831 66.9789C54.8466 65.5325 52.9835 64.8787 50.9938 65.0174C49.0042 65.1561 47.3693 65.9939 46.0893 67.5306Z" fill="#1C1C1C"/>
<path d="M104.511 19.8197C106.937 18.7289 109.374 18.5875 111.82 19.3953L110.976 22.2745C109.256 21.6666 107.52 21.7563 105.769 22.5436C104.036 23.3227 102.811 24.6956 102.095 26.6624C101.388 28.6028 101.478 30.5579 102.364 32.528C103.249 34.498 104.656 35.8719 106.585 36.6495C108.523 37.4006 110.359 37.3866 112.092 36.6075C113.807 35.8366 115.036 34.5712 115.78 32.8115L118.466 34.1037C117.426 36.5226 115.703 38.2734 113.295 39.356C111.69 40.0777 109.977 40.3653 108.157 40.2188C106.328 40.054 104.6 39.4279 102.97 38.3403C101.341 37.2528 100.112 35.7878 99.2839 33.9455C98.4474 32.0849 98.1631 30.1843 98.4309 28.2439C98.6905 26.2851 99.3696 24.5764 100.468 23.1177C101.558 21.6408 102.906 20.5414 104.511 19.8197Z" fill="#1C1C1C"/>
<path d="M135.288 9.75318L141.011 29.9583L138.009 30.8086L134.191 17.3289L131.803 32.5664L129.35 33.2613L119.392 21.5518L123.202 35.0027L120.2 35.8529L114.477 15.6478L117.363 14.8302L129.397 28.6955L132.373 10.5789L135.288 9.75318Z" fill="#1C1C1C"/>
<path d="M151.953 7.13741C154.697 6.84008 157.232 7.59128 159.56 9.39101C161.887 11.1908 163.216 13.6117 163.545 16.6539C163.875 19.6961 163.096 22.3455 161.208 24.602C159.32 26.8585 157.004 28.1354 154.26 28.4328C151.576 28.7236 149.05 27.9713 146.683 26.1759C144.314 24.3606 142.965 21.9418 142.638 18.9195C142.31 15.8972 143.11 13.2556 145.038 10.9948C146.963 8.71408 149.268 7.42829 151.953 7.13741ZM152.276 10.12C150.387 10.3246 148.805 11.2303 147.531 12.8369C146.274 14.4215 145.767 16.3273 146.008 18.5543C146.249 20.7812 147.154 22.544 148.723 23.8425C150.31 25.119 152.048 25.6549 153.937 25.4502C155.925 25.2347 157.528 24.3369 158.745 22.7566C159.962 21.1763 160.448 19.2627 160.205 17.0159C159.961 14.769 159.076 13.0041 157.549 11.7212C156.022 10.4382 154.264 9.90449 152.276 10.12Z" fill="#1C1C1C"/>
<path d="M181.914 6.61579L181.829 9.37448L176.191 9.20036L175.628 27.4317L172.36 27.3307L172.923 9.09941L167.286 8.92529L167.371 6.16661L181.914 6.61579Z" fill="#1C1C1C"/>
<path d="M194.356 8.09301C196.61 8.43415 198.308 9.3081 199.451 10.7149C200.613 12.1246 201.05 13.7787 200.763 15.6771C200.476 17.5755 199.569 19.026 198.041 20.0288C196.534 21.0346 194.653 21.3669 192.399 21.0258L188.483 20.4333L187.298 28.2641L184.213 27.7973L187.355 7.03369L194.356 8.09301ZM192.634 18.2699C194.018 18.4794 195.155 18.3177 196.045 17.7848C196.954 17.2549 197.499 16.3967 197.678 15.2103C197.858 14.0238 197.592 13.0429 196.879 12.2676C196.187 11.4954 195.149 11.0045 193.765 10.795L190.027 10.2294L188.896 17.7043L192.634 18.2699Z" fill="#1C1C1C"/>
<path d="M205.377 28.8126L215.183 31.5099L214.459 34.1421L201.587 30.6015L207.157 10.3535L219.739 13.8146L219.015 16.4468L209.499 13.8291L207.78 20.0771L214.404 21.8991L213.68 24.5314L207.056 22.7093L205.377 28.8126Z" fill="#1C1C1C"/>
<path d="M237.529 20.5712L236.501 23.1328L231.267 21.0332L224.477 37.9622L221.442 36.7449L228.232 19.8159L222.997 17.7163L224.025 15.1547L237.529 20.5712Z" fill="#1C1C1C"/>
<path d="M238.283 44.5111L232.084 41.0913L242.227 22.7035L244.959 24.2105L241.133 31.1453L244.601 33.0581C246.597 34.1593 247.887 35.5677 248.471 37.2832C249.073 39.0083 248.91 40.7115 247.983 42.3927C247.055 44.0739 245.701 45.1201 243.921 45.5315C242.159 45.9525 240.279 45.6123 238.283 44.5111ZM243.11 35.3878L239.8 33.562L236.149 40.1816L239.458 42.0074C240.684 42.6836 241.807 42.926 242.826 42.7345C243.863 42.5527 244.671 41.9364 245.251 40.8857C245.83 39.8349 245.92 38.8226 245.521 37.8486C245.14 36.8843 244.336 36.064 243.11 35.3878Z" fill="#1C1C1C"/>
<path d="M269.81 52.0655C270.587 53.3627 270.952 54.5968 270.905 55.7679C270.859 56.939 270.458 57.9911 269.704 58.9242C268.484 60.4328 267.013 61.1857 265.292 61.183C263.587 61.1928 261.77 60.4181 259.841 58.8588L253.963 54.1054L267.167 37.7757L272.905 42.4159C274.46 43.6734 275.386 45.026 275.681 46.4738C275.989 47.9059 275.596 49.2985 274.502 50.6516C273.245 52.2068 271.681 52.6781 269.81 52.0655ZM264.307 46.2271L267.643 48.9245C269.4 50.3454 270.876 50.3172 272.071 48.8398C272.649 48.1244 272.87 47.3899 272.733 46.6364C272.597 45.883 272.101 45.1604 271.245 44.4688L267.909 41.7714L264.307 46.2271ZM261.711 56.9757C262.862 57.9062 263.919 58.349 264.881 58.3041C265.859 58.2717 266.712 57.8045 267.442 56.9024C268.108 56.0782 268.366 55.155 268.215 54.1328C268.08 53.1232 267.452 52.1657 266.333 51.2603L262.647 48.28L258.025 53.9954L261.711 56.9757Z" fill="#1C1C1C"/>
<path d="M283.316 51.2216L285.465 53.4832L274.071 64.3126L292.72 61.116L294.766 63.2688L279.543 77.7356L277.415 75.4958L288.81 64.6664L270.161 67.863L268.094 65.6884L283.316 51.2216Z" fill="#1C1C1C"/>
<path d="M296.205 96.2595L292.346 98.9601L290.609 96.4776L292.305 95.2907L282.638 81.4774L280.942 82.6643L279.204 80.1819L283.063 77.4813L284.457 79.4721C285.799 79.1921 287.353 78.5189 289.122 77.4524C290.906 76.3745 293.453 74.6773 296.763 72.3609L300.204 69.9527L309.527 83.2744L294.485 93.8016L296.205 96.2595ZM286.16 81.9054L292.748 91.3191L305.651 82.2885L299.803 73.9317L298.5 74.8434C296.272 76.4029 294.573 77.5677 293.403 78.3376C292.261 79.1125 291.001 79.8595 289.625 80.5787C288.265 81.2863 287.11 81.7286 286.16 81.9054Z" fill="#1C1C1C"/>
<path d="M298.531 100.991L303.144 110.055L300.711 111.293L294.656 99.3956L313.371 89.8698L319.291 101.5L316.858 102.738L312.38 93.9422L306.606 96.8816L309.722 103.004L307.289 104.242L304.173 98.1199L298.531 100.991Z" fill="#1C1C1C"/>
<path d="M325.158 115.668C326.069 118.274 325.912 120.913 324.686 123.588C323.46 126.263 321.403 128.105 318.514 129.115C315.626 130.125 312.869 129.966 310.243 128.639C307.618 127.311 305.85 125.344 304.939 122.739C304.047 120.191 304.208 117.56 305.421 114.848C306.652 112.129 308.703 110.268 311.572 109.264C314.442 108.26 317.196 108.441 319.835 109.807C322.492 111.166 324.267 113.12 325.158 115.668ZM322.326 116.659C321.699 114.865 320.458 113.53 318.605 112.652C316.777 111.787 314.806 111.725 312.691 112.464C310.577 113.203 309.065 114.484 308.156 116.307C307.272 118.141 307.143 119.955 307.77 121.749C308.431 123.637 309.668 124.994 311.483 125.822C313.298 126.649 315.272 126.69 317.405 125.943C319.539 125.197 321.057 123.935 321.961 122.157C322.865 120.379 322.986 118.546 322.326 116.659Z" fill="#1C1C1C"/>
<rect width="2" height="20" transform="matrix(-1 0 0 1 113.017 306.002)" fill="#1C1C1C"/>
<rect width="2" height="20" transform="matrix(0 -1 -1 0 122.001 317.002)" fill="#1C1C1C"/>
<rect width="2" height="20" transform="matrix(0.707107 -0.707107 -0.707107 -0.707107 118.384 323.799)" fill="#1C1C1C"/>
<rect width="2" height="20" transform="matrix(0.707107 0.707107 0.707107 -0.707107 104.243 322.385)" fill="#1C1C1C"/>
<rect width="2" height="20" transform="matrix(-1 0 0 1 324.017 143.002)" fill="#1C1C1C"/>
<rect width="2" height="20" transform="matrix(0 -1 -1 0 333.001 154.002)" fill="#1C1C1C"/>
<rect width="2" height="20" transform="matrix(0.707107 -0.707107 -0.707107 -0.707107 329.384 160.799)" fill="#1C1C1C"/>
<rect width="2" height="20" transform="matrix(0.707107 0.707107 0.707107 -0.707107 315.243 159.385)" fill="#1C1C1C"/>
<rect width="2" height="20" transform="matrix(-1 0 0 1 79.0166 38.002)" fill="#1C1C1C"/>
<rect width="2" height="20" transform="matrix(0 -1 -1 0 88.001 49.002)" fill="#1C1C1C"/>
<rect width="2" height="20" transform="matrix(0.707107 -0.707107 -0.707107 -0.707107 84.3838 55.7988)" fill="#1C1C1C"/>
<rect width="2" height="20" transform="matrix(0.707107 0.707107 0.707107 -0.707107 70.2432 54.3848)" fill="#1C1C1C"/>
</svg>
