<svg width="32" height="146" viewBox="0 0 32 146" fill="none" xmlns="http://www.w3.org/2000/svg">
<path d="M14.675 129.358C15.455 127.228 16.55 125.638 17.96 124.588C19.37 123.538 20.975 123.013 22.775 123.013C25.685 123.013 27.95 124.018 29.57 126.028C31.19 128.008 32 130.858 32 134.578V145.918H0.499998V134.848C0.499998 131.848 1.205 129.493 2.615 127.783C3.995 126.073 5.99 125.218 8.6 125.218C11.6 125.218 13.625 126.598 14.675 129.358ZM13.055 141.283V134.848C13.055 131.458 11.63 129.763 8.78 129.763C7.4 129.763 6.335 130.198 5.585 131.068C4.835 131.938 4.46 133.198 4.46 134.848V141.283H13.055ZM28.04 134.173C28.04 131.953 27.56 130.303 26.6 129.223C25.64 128.113 24.29 127.558 22.55 127.558C20.96 127.558 19.64 128.128 18.59 129.268C17.54 130.378 17.015 132.013 17.015 134.173V141.283H28.04V134.173ZM32 94.9279V100.103L20.12 108.293V113.153H32V117.833H0.499998V107.213C0.499998 103.793 1.415 101.078 3.245 99.0679C5.075 97.0279 7.43 96.0079 10.31 96.0079C12.62 96.0079 14.615 96.6829 16.295 98.0329C17.975 99.3829 19.115 101.228 19.715 103.568L32 94.9279ZM4.64 113.153H15.98V107.483C15.98 105.383 15.485 103.733 14.495 102.533C13.505 101.303 12.11 100.688 10.31 100.688C8.51 100.688 7.115 101.303 6.125 102.533C5.135 103.733 4.64 105.383 4.64 107.483V113.153ZM32 67.056L24.305 70.476V83.931L32 87.351L32 92.436L0.499998 77.676V76.776L32 62.016V67.056ZM20.435 82.176V72.231L9.32 77.226L20.435 82.176ZM0.499998 32.8297H32V37.2847L8.42 53.0797H32V57.7597H0.499998V53.3047L24.08 37.5097H0.499998V32.8297ZM0.499998 16.2095C0.499998 11.7095 2.03 7.94455 5.09 4.91455C8.12 1.88455 11.825 0.36955 16.205 0.36955C20.645 0.36955 24.395 1.88455 27.455 4.91455C30.485 7.94455 32 11.7095 32 16.2095V26.2896H0.499998L0.499998 16.2095ZM28.04 16.2095C28.04 12.7895 26.93 10.0745 24.71 8.06455C22.46 6.05455 19.625 5.04955 16.205 5.04955C12.815 5.04955 10.01 6.05455 7.79 8.06455C5.57 10.0745 4.46 12.7895 4.46 16.2095V21.6096H28.04V16.2095Z" fill="white"/>
</svg>
