<svg width="178" height="160" viewBox="0 0 178 160" fill="none" xmlns="http://www.w3.org/2000/svg">
<circle cx="88" cy="80" r="80" fill="#E21B90"/>
<path d="M102.75 81.299L81.75 93.4234C80.75 94.0007 79.5 93.2791 79.5 92.1244V67.8756C79.5 66.7209 80.75 65.9993 81.75 66.5766L102.75 78.701C103.75 79.2783 103.75 80.7217 102.75 81.299Z" stroke="white" stroke-width="3"/>
<rect width="2" height="20" transform="matrix(-1 0 0 1 129.021 27)" fill="white"/>
<rect width="2" height="20" transform="matrix(0 -1 -1 0 138 38)" fill="white"/>
<rect width="2" height="20" transform="matrix(0.707107 -0.707107 -0.707107 -0.707107 134.385 44.7969)" fill="white"/>
<rect width="2" height="20" transform="matrix(0.707107 0.707107 0.707107 -0.707107 120.24 43.3854)" fill="white"/>
<rect width="2" height="20" transform="matrix(-1 0 0 1 49.0209 114)" fill="white"/>
<rect width="2" height="20" transform="matrix(0 -1 -1 0 58 125)" fill="white"/>
<rect width="2" height="20" transform="matrix(0.707107 -0.707107 -0.707107 -0.707107 54.3854 131.797)" fill="white"/>
<rect width="2" height="20" transform="matrix(0.707107 0.707107 0.707107 -0.707107 40.2396 130.385)" fill="white"/>
<path d="M152.679 72.2731C152.737 73.2674 152.542 74.1443 152.094 74.9038C151.645 75.6633 151.077 76.2254 150.389 76.5902L149.738 75.0055C150.17 74.7879 150.505 74.4498 150.742 73.9912C150.993 73.5438 151.1 73.0206 151.065 72.4216C151.028 71.7867 150.848 71.2744 150.525 70.8846C150.201 70.4948 149.8 70.3139 149.321 70.3419C148.878 70.3679 148.52 70.527 148.249 70.8193C147.978 71.1237 147.754 71.6056 147.576 72.2651L147.294 73.2914C146.947 74.5617 146.48 75.5206 145.893 76.168C145.307 76.8274 144.558 77.1837 143.648 77.237C142.558 77.3008 141.668 76.896 140.98 76.0227C140.293 75.1614 139.916 74.1617 139.849 73.0236C139.784 71.9095 139.997 70.9234 140.488 70.0653C140.979 69.2191 141.658 68.6084 142.526 68.2331L143.299 69.7385C142.725 69.9885 142.262 70.4002 141.911 70.9737C141.572 71.5465 141.424 72.1983 141.466 72.929C141.507 73.6238 141.71 74.213 142.075 74.6965C142.44 75.192 142.929 75.4219 143.539 75.3862C144.114 75.3525 144.541 75.1413 144.819 74.7524C145.108 74.3628 145.368 73.7586 145.596 72.9399L145.913 71.8756C146.212 70.8363 146.616 70.0254 147.123 69.4428C147.629 68.8602 148.326 68.543 149.212 68.4911C150.147 68.4364 150.942 68.7746 151.598 69.5055C152.254 70.2485 152.615 71.171 152.679 72.2731Z" fill="white"/>
<path d="M150.684 90.0179L150.444 91.8745L137.948 90.2641L138.187 88.4075L143.56 89.1L144.327 83.1551L138.953 82.4627L139.192 80.606L151.689 82.2164L151.45 84.073L145.915 83.3599L145.149 89.3047L150.684 90.0179Z" fill="white"/>
<path d="M147.599 103.024C147.041 104.583 145.971 105.755 144.389 106.539C142.808 107.324 141.153 107.406 139.425 106.787C137.696 106.168 136.471 105.053 135.748 103.442C135.024 101.832 134.942 100.247 135.501 98.6884C136.047 97.1633 137.115 95.9973 138.705 95.1902C140.306 94.3871 141.964 94.2932 143.682 94.9085C145.399 95.5239 146.615 96.648 147.33 98.2809C148.056 99.9179 148.146 101.499 147.599 103.024ZM145.905 102.417C146.29 101.344 146.215 100.253 145.682 99.1437C145.156 98.0502 144.261 97.2767 142.995 96.8233C141.73 96.3699 140.541 96.3965 139.429 96.903C138.325 97.4249 137.58 98.2224 137.195 99.2956C136.791 100.425 136.855 101.526 137.389 102.596C137.923 103.667 138.828 104.432 140.105 104.889C141.381 105.346 142.566 105.331 143.659 104.843C144.751 104.355 145.5 103.546 145.905 102.417Z" fill="white"/>
<path d="M132.991 126.665L125.271 115.715L125.529 115.346L135.057 117.392L129.869 109.134L130.117 108.78L143.054 112.264L141.92 113.887L133.22 111.409L138.167 119.258L137.878 119.671L128.807 117.725L134.125 125.042L132.991 126.665Z" fill="white"/>
<path d="M114.485 127.1L116.051 125.747L121.637 127.202L123.108 125.931L120.002 122.335L121.419 121.112L129.655 130.647L126.44 133.424C125.405 134.318 124.344 134.751 123.257 134.722C122.161 134.702 121.236 134.256 120.483 133.384C119.879 132.685 119.562 131.904 119.531 131.043C119.501 130.181 119.761 129.354 120.312 128.56L114.485 127.1ZM127.156 130.617L124.191 127.185L122.474 128.667C121.839 129.216 121.468 129.797 121.364 130.411C121.251 131.032 121.429 131.615 121.9 132.16C122.37 132.705 122.921 132.967 123.553 132.945C124.175 132.931 124.804 132.649 125.439 132.1L127.156 130.617Z" fill="white"/>
<path d="M110.544 130.216L105.315 133.361L104.471 131.958L111.334 127.829L117.83 138.626L111.12 142.662L110.276 141.258L115.35 138.206L113.346 134.874L109.814 136.999L108.969 135.595L112.502 133.47L110.544 130.216Z" fill="white"/>
<path d="M100.454 134.572L94.8047 136.879L94.1855 135.363L101.601 132.335L106.364 144L99.1155 146.96L98.4963 145.443L103.979 143.204L102.509 139.605L98.6928 141.163L98.0736 139.647L101.89 138.089L100.454 134.572Z" fill="white"/>
<path d="M88.5475 137.64L82.4075 139.051L82.0527 137.507L89.9996 135.681L92.8217 147.961L91.0148 148.376L88.5475 137.64Z" fill="white"/>
<path d="M22.0435 74.4038C22.3866 72.8451 23.1905 71.6213 24.4551 70.7324L25.5396 72.1691C24.6311 72.7801 24.053 73.6481 23.8053 74.7732C23.5603 75.8865 23.7831 76.9677 24.4737 78.0167C25.1552 79.0514 26.1288 79.708 27.3945 79.9866C28.6602 80.2652 29.8254 80.0793 30.8901 79.429C31.9457 78.7644 32.596 77.8754 32.841 76.762C33.0835 75.6604 32.9141 74.6156 32.333 73.6275L33.9166 72.7965C34.7094 74.1629 34.9356 75.6196 34.5951 77.1665C34.3681 78.1978 33.8936 79.1255 33.1715 79.9496C32.4378 80.7711 31.5175 81.3795 30.4106 81.7748C29.3038 82.1701 28.1585 82.2375 26.9749 81.9769C25.7795 81.7138 24.7625 81.1705 23.9239 80.347C23.0736 79.5209 22.4938 78.5823 22.1845 77.5312C21.8635 76.4776 21.8165 75.4351 22.0435 74.4038Z" fill="white"/>
<path d="M27.7848 52.8275L39.5914 57.2279L38.9376 58.982L31.0609 56.0463L37.586 62.6084L37.0517 64.042L27.8529 64.7052L35.7127 67.6346L35.0589 69.3887L23.2523 64.9883L23.881 63.3017L34.8595 62.399L27.1498 54.531L27.7848 52.8275Z" fill="white"/>
<path d="M33.2312 43.0809C34.2539 41.7785 35.6394 41.005 37.3877 40.7605C39.136 40.516 40.7321 40.9608 42.1761 42.0947C43.6201 43.2286 44.4306 44.6737 44.6077 46.4301C44.7848 48.1864 44.362 49.7158 43.3392 51.0183C42.3387 52.2924 40.9569 53.0611 39.1938 53.3245C37.4213 53.5804 35.8178 53.1451 34.3832 52.0186C32.9487 50.8921 32.1502 49.4413 31.988 47.666C31.8163 45.8834 32.2307 44.355 33.2312 43.0809ZM34.6469 44.1926C33.9428 45.0892 33.6685 46.1477 33.8238 47.3683C33.9772 48.572 34.5824 49.5889 35.6394 50.4189C36.6965 51.249 37.8326 51.5995 39.0477 51.4704C40.2609 51.3245 41.2195 50.8032 41.9235 49.9066C42.6647 48.9628 42.9511 47.8985 42.783 46.7137C42.6148 45.5288 41.9975 44.5177 40.931 43.6802C39.8645 42.8428 38.7358 42.4828 37.5449 42.6005C36.354 42.7181 35.388 43.2488 34.6469 44.1926Z" fill="white"/>
<path d="M45.0809 29.033L46.233 30.2225L43.8021 32.5767L51.4156 40.4384L50.0062 41.8033L42.3927 33.9416L39.9618 36.2958L38.8097 35.1062L45.0809 29.033Z" fill="white"/>
<path d="M52.8138 22.9811C53.9509 22.2206 55.0571 21.9211 56.1324 22.0826C57.2176 22.2374 58.0804 22.7937 58.7208 23.7512C59.3612 24.7088 59.5458 25.7187 59.2744 26.7808C59.013 27.8362 58.3138 28.7442 57.1766 29.5046L55.2016 30.8255L57.8433 34.7755L56.2872 35.8162L49.2827 25.3426L52.8138 22.9811ZM56.1663 28.1882C56.8645 27.7212 57.303 27.1897 57.4819 26.5937C57.6707 25.991 57.565 25.3904 57.1647 24.7919C56.7645 24.1934 56.2498 23.8664 55.6207 23.8107C55.0016 23.7484 54.3429 23.9507 53.6446 24.4177L51.7594 25.6785L54.281 29.449L56.1663 28.1882Z" fill="white"/>
<path d="M66.6118 27.7264L72.3023 25.5235L72.8936 27.051L65.4238 29.9428L60.875 18.1925L68.1769 15.3657L68.7683 16.8933L63.2457 19.0312L64.6493 22.657L68.4933 21.1689L69.0847 22.6964L65.2406 24.1845L66.6118 27.7264Z" fill="white"/>
<path d="M81.6148 11.7085L81.9557 13.329L78.6443 14.0258L80.8977 24.7353L78.9777 25.1393L76.7243 14.4298L73.4128 15.1266L73.0718 13.5061L81.6148 11.7085Z" fill="white"/>
<path d="M90.847 23.6899L86.601 23.8216L86.2102 11.2277L88.0813 11.1696L88.2287 15.9193L90.6036 15.8456C91.9709 15.8032 93.0677 16.1354 93.894 16.8421C94.7324 17.5484 95.1694 18.4773 95.2051 19.6287C95.2408 20.7802 94.8623 21.7344 94.0694 22.4913C93.2884 23.2479 92.2143 23.6474 90.847 23.6899ZM90.547 17.5042L88.2801 17.5745L88.4208 22.1084L90.6877 22.038C91.5273 22.012 92.1808 21.7936 92.6483 21.3829C93.1278 20.9718 93.3563 20.4065 93.334 19.6868C93.3117 18.9671 93.0485 18.417 92.5444 18.0365C92.0524 17.6556 91.3866 17.4781 90.547 17.5042Z" fill="white"/>
</svg>
