<svg width="1388" height="217" viewBox="0 0 1388 217" fill="none" xmlns="http://www.w3.org/2000/svg">
<path d="M216.875 131.477C211.498 182.7 171.029 216.377 112.731 216.377C42.8296 216.377 0.379633 173.644 0.379633 108.271C0.379633 42.898 42.8296 0.164982 113.014 0.164982C170.463 0.164982 210.366 32.71 214.611 80.254H184.33C178.67 47.426 152.068 27.616 112.731 27.616C60.6586 27.616 30.6606 57.897 30.6606 108.271C30.6606 158.645 60.9416 188.926 113.014 188.926C153.483 188.926 181.783 166.003 186.594 131.477H216.875ZM281.611 211V5.542H389.717C437.544 5.542 462.731 25.352 462.731 61.576C462.731 88.178 450.562 104.592 427.356 111.95C449.713 116.195 457.354 124.685 459.618 161.192C461.316 188.36 462.731 205.057 468.957 211H434.997C432.45 205.057 431.318 194.02 429.903 172.229C427.356 132.043 420.847 122.704 387.453 122.704H310.76V211H281.611ZM310.76 29.597V98.649H378.114C415.753 98.649 433.582 90.442 433.582 63.84C433.582 36.106 415.187 29.597 375.567 29.597H310.76ZM537.151 211V5.542H700.442V32.427H566.3V92.423H692.235V119.308H566.3V184.115H702.423V211H537.151ZM747.093 211L844.728 5.542H875.009L966.418 211H936.137L910.101 152.419H805.108L777.94 211H747.093ZM817.277 125.534H898.215L858.878 38.087L817.277 125.534ZM974.444 5.542H1160.37V32.427H1081.98V211H1052.83V32.427H974.444V5.542ZM1168.35 211L1265.99 5.542H1296.27L1387.68 211H1357.4L1331.36 152.419H1226.37L1199.2 211H1168.35ZM1238.54 125.534H1319.48L1280.14 38.087L1238.54 125.534Z" stroke-width="10" stroke-miterlimit="10" fill="white"/>
</svg>
