<svg width="1536" height="171" viewBox="0 0 1536 171" fill="none" xmlns="http://www.w3.org/2000/svg">
<rect x="90" y="33" width="30" height="30" fill="white"/>
<rect x="120" y="93" width="30" height="30" fill="white"/>
<rect x="90" y="63" width="30" height="30" fill="white"/>
<rect x="60" y="33" width="30" height="30" fill="white"/>
<rect x="183" y="3" width="30" height="30" fill="white"/>
<rect x="183" y="33" width="30" height="30" fill="white"/>
<rect x="293" y="3" width="30" height="30" fill="white"/>
<rect x="290" y="52.0938" width="30" height="30" fill="white"/>
<rect x="290" y="91.793" width="30" height="30" fill="white"/>
<rect x="263" y="3" width="30" height="30" fill="white"/>
<rect x="60" y="3" width="30" height="30" fill="white"/>
<rect x="240" y="115.207" width="30" height="30" fill="white"/>
<rect x="153" y="3" width="30" height="30" fill="white"/>
<rect x="233" y="33" width="30" height="30" fill="white"/>
<rect x="569" y="33" width="30" height="30" fill="white"/>
<rect x="539" y="3" width="30" height="30" fill="white"/>
<rect x="437" y="52" width="30" height="30" fill="white"/>
<rect x="437" y="90" width="30" height="30" fill="white"/>
<rect x="474" y="90" width="30" height="30" fill="white"/>
<rect x="474" y="126" width="30" height="30" fill="white"/>
<rect x="539" y="33" width="30" height="30" fill="white"/>
<rect x="1370" y="3" width="30" height="30" fill="white"/>
<rect x="1340" y="52.0938" width="30" height="30" fill="white"/>
<rect x="1302" y="52.0938" width="30" height="30" fill="white"/>
<rect x="1216" y="28" width="30" height="30" fill="white"/>
<rect x="1048" y="48" width="30" height="30" fill="white"/>
<rect x="771" y="102.99" width="30" height="30" fill="white"/>
<rect x="1216" width="30" height="30" fill="white"/>
<rect x="648" y="18" width="30" height="30" fill="white"/>
<rect x="671" y="140.654" width="30" height="30" fill="white"/>
<rect y="33" width="30" height="30" fill="white"/>
<rect x="30" y="33" width="30" height="30" fill="white"/>
<rect x="569" y="60" width="30" height="30" fill="white"/>
<rect x="730" y="3" width="30" height="30" fill="white"/>
<rect x="801" y="34" width="30" height="30" fill="white"/>
<rect x="771" y="64.3086" width="30" height="30" fill="white"/>
<rect x="988" y="18" width="30" height="30" fill="white"/>
<rect x="1018" y="48" width="30" height="30" fill="white"/>
<rect x="1018" y="3" width="30" height="15" fill="white"/>
<rect x="910" y="77.543" width="30" height="30" fill="white"/>
<rect x="870" y="77.543" width="30" height="30" fill="white"/>
<rect x="988" y="48" width="30" height="30" fill="white"/>
<rect x="1428" y="26.6465" width="30" height="30" fill="white"/>
<rect x="1476" y="117.242" width="30" height="30" fill="white"/>
<rect x="1506" y="117.242" width="30" height="30" fill="white"/>
<rect x="1506" y="91.793" width="30" height="30" fill="white"/>
<rect x="1493" y="13.4121" width="30" height="30" fill="white"/>
<rect x="700" y="3" width="30" height="30" fill="white"/>
</svg>
