<svg width="1542" height="175" viewBox="0 0 1542 175" fill="none" xmlns="http://www.w3.org/2000/svg">
<rect width="30" height="29.9806" transform="matrix(-1 0 0 1 1542 80)" fill="white"/>
<rect width="30" height="29.9806" transform="matrix(-1 0 0 1 1512 110)" fill="white"/>
<rect width="30" height="29.9806" transform="matrix(-1 0 0 1 1482 140)" fill="white"/>
<rect width="30" height="50" transform="matrix(-1 0 0 1 1424 73)" fill="white"/>
<rect width="30" height="29.9806" transform="matrix(-1 0 0 1 1394 73)" fill="white"/>
<rect width="30" height="29.9806" transform="matrix(-1 0 0 1 1254 54)" fill="white"/>
<rect width="30" height="29.9806" transform="matrix(-1 0 0 1 1194 54)" fill="white"/>
<rect width="30" height="29.9806" transform="matrix(-1 0 0 1 1284 84)" fill="white"/>
<rect width="30" height="29.9806" transform="matrix(-1 0 0 1 1314 84)" fill="white"/>
<rect width="30" height="29.9806" transform="matrix(-1 0 0 1 1512 140)" fill="white"/>
<rect width="30" height="29.9806" transform="matrix(-1 0 0 1 1314 114)" fill="white"/>
<rect width="30" height="29.9806" transform="matrix(-1 0 0 1 1364 43)" fill="white"/>
<rect width="30" height="29.9806" transform="matrix(-1 0 0 1 1224 84)" fill="white"/>
<rect width="30" height="29.9806" transform="matrix(-1 0 0 1 1254 24)" fill="white"/>
<rect width="30" height="29.9806" transform="matrix(-1 0 0 1 1093 80)" fill="white"/>
<rect width="30" height="29.9806" transform="matrix(-1 0 0 1 1153 140)" fill="white"/>
<rect width="30.0194" height="30" transform="matrix(-1 0 0 1 1153.02 110)" fill="white"/>
<rect width="30" height="29.9806" transform="matrix(-1 0 0 1 1093 110)" fill="white"/>
<rect width="30" height="30" transform="matrix(-1 0 0 1 1063 140)" fill="white"/>
<rect width="30" height="29.9806" transform="matrix(-1 0 0 1 1048 24)" fill="white"/>
<rect width="30" height="29.9806" transform="matrix(-1 0 0 1 94 0)" fill="white"/>
<rect width="30" height="29.9806" transform="matrix(-1 0 0 1 120 110)" fill="white"/>
<rect width="30" height="29.9806" transform="matrix(-1 0 0 1 150 80)" fill="white"/>
<rect width="30" height="29.9806" transform="matrix(-1 0 0 1 304 115)" fill="white"/>
<rect width="30" height="29.9806" transform="matrix(-1 0 0 1 334.23 115)" fill="white"/>
<rect width="30" height="29.9806" transform="matrix(-1 0 0 1 931 100)" fill="white"/>
<rect width="30" height="29.9806" transform="matrix(-1 0 0 1 700 43)" fill="white"/>
<rect width="30" height="29.9806" transform="matrix(-1 0 0 1 608 103)" fill="white"/>
<rect width="30" height="29.9806" transform="matrix(-1 0 0 1 578 145)" fill="white"/>
<rect width="30" height="29.9806" transform="matrix(-1 0 0 1 448 103)" fill="white"/>
<rect width="30" height="29.9806" transform="matrix(-1 0 0 1 774 97)" fill="white"/>
<rect width="30" height="29.9806" transform="matrix(-1 0 0 1 814 97)" fill="white"/>
<rect width="30" height="29.9806" transform="matrix(-1 0 0 1 448 61)" fill="white"/>
<rect width="30" height="29.9806" transform="matrix(-1 0 0 1 408 103)" fill="white"/>
<rect width="30" height="29.9806" transform="matrix(-1 0 0 1 578.387 73)" fill="white"/>
<rect width="30" height="29.9806" transform="matrix(-1 0 0 1 578 103)" fill="white"/>
<rect width="30" height="29.9806" transform="matrix(-1 0 0 1 578 133)" fill="white"/>
<rect width="30" height="29.9806" transform="matrix(-1 0 0 1 334 140)" fill="white"/>
<rect width="30" height="29.9806" transform="matrix(-1 0 0 1 90 140)" fill="white"/>
<rect width="30" height="29.9806" transform="matrix(-1 0 0 1 60 140)" fill="white"/>
<rect width="30" height="29.9806" transform="matrix(-1 0 0 1 30 140)" fill="white"/>
<rect width="30" height="29.9806" transform="matrix(-1 0 0 1 30 111)" fill="white"/>
<rect width="30" height="29.9806" transform="matrix(-1 0 0 1 30 81)" fill="white"/>
<rect width="30" height="29.9806" transform="matrix(-1 0 0 1 1063 110)" fill="white"/>
</svg>
