<svg width="1295" height="155" viewBox="0 0 1295 155" fill="none" xmlns="http://www.w3.org/2000/svg">
<path d="M165.345 60.304H138.417C135.153 48.2 125.225 41.944 108.905 41.944C89.1848 41.944 76.9448 53.912 76.9448 73.632C76.9448 93.352 89.1848 105.32 108.905 105.32C126.313 105.32 137.057 97.568 138.689 84.648H165.753C163.169 108.992 141.409 125.584 108.905 125.584C72.5928 125.584 49.7448 104.912 49.7448 73.632C49.7448 42.352 72.5928 21.68 108.905 21.68C141.409 21.68 162.897 38 165.345 60.304ZM166.504 24.264H258.984V44.528H225.12V123H200.368V44.528H166.504V24.264ZM265.1 24.264H288.9V93.896L338.268 24.264H368.732V123H344.932V52.688L295.156 123H265.1V24.264ZM411.412 24.264V62.208L453.028 24.264H484.852L441.332 62.616L490.156 123H459.828L423.924 77.712L411.412 88.864V123H386.66V24.264H411.412ZM497.065 24.264H584.785V44.528H521.817V60.984H577.849V81.248H521.817V102.736H584.785V123H497.065V24.264ZM599.102 123V24.264H657.582C680.702 24.264 693.894 37.048 693.894 57.856C693.894 78.8 680.702 91.992 657.582 91.992H623.854V123H599.102ZM623.854 44.528V71.728H646.566C661.934 71.728 669.142 69.144 669.142 58.264C669.142 46.976 662.886 44.528 648.198 44.528H623.854ZM706.584 24.264H738.544L770.368 94.984L803.008 24.264H834.696V123H810.896V57.04L780.296 123H759.76L730.384 55.952V123H706.584V24.264ZM838.847 123L885.631 24.264H909.295L954.311 123H926.839L917.863 102.056H874.343L865.503 123H838.847ZM882.775 82.064H908.887L895.695 51.6L882.775 82.064ZM983.223 24.264V60.984H1030.69V24.264H1055.44V123H1030.69V81.248H983.223V123H958.471V24.264H983.223ZM1073.39 24.264H1097.19V93.896L1146.56 24.264H1177.02V123H1153.22V52.688L1103.45 123H1073.39V24.264ZM1283.9 24.264V123H1259.14V86.416H1240.51L1216.98 123H1189.65L1215.35 84.24C1200.53 82.472 1190.6 71.592 1190.6 55.136C1190.6 36.096 1202.98 24.264 1223.92 24.264H1283.9ZM1259.14 66.152V44.528H1232.62C1220.38 44.528 1215.35 46.704 1215.35 55.816C1215.35 64.656 1221.47 66.152 1233.85 66.152H1259.14Z" fill="white"/>
<rect width="30" height="140" fill="white"/>
</svg>
