<svg width="608" height="81" viewBox="0 0 608 81" fill="none" xmlns="http://www.w3.org/2000/svg">
<mask id="path-1-outside-1_505_2719" maskUnits="userSpaceOnUse" x="0" y="0" width="608" height="81" fill="black">
<rect fill="white" width="608" height="81"/>
<path d="M127.836 10.22H134.886L141.906 25.82L149.106 10.22H156.096V32H150.846V17.45L144.096 32H139.566L133.086 17.21V32H127.836V10.22ZM172.822 9.65C180.832 9.65 185.842 14.21 185.842 21.11C185.842 28.01 180.832 32.57 172.822 32.57C164.812 32.57 159.772 28.01 159.772 21.11C159.772 14.21 164.812 9.65 172.822 9.65ZM172.822 14.12C168.472 14.12 165.772 16.76 165.772 21.11C165.772 25.46 168.472 28.1 172.822 28.1C177.172 28.1 179.842 25.46 179.842 21.11C179.842 16.73 177.172 14.12 172.822 14.12ZM189.535 10.22H207.835V14.69H194.995V18.32H202.765C207.385 18.32 210.055 20.99 210.055 25.22C210.055 29.42 207.445 32 202.795 32H189.535V10.22ZM194.995 22.79V27.53H200.845C203.515 27.53 204.595 27.08 204.595 25.07C204.595 23.12 203.305 22.79 200.575 22.79H194.995ZM213.735 10.22H218.985V25.58L229.875 10.22H236.595V32H231.345V16.49L220.365 32H213.735V10.22ZM243.7 10.22H264.19V32H258.73V14.69H249.16V23.27C249.16 28.91 247.48 32.57 242.35 32.57C241.12 32.57 239.98 32.48 239.02 32.24V27.56C239.35 27.65 239.92 27.74 240.64 27.74C243.1 27.74 243.7 26.6 243.7 21.59V10.22ZM274.507 10.22V18.32H282.277C286.897 18.32 289.567 20.99 289.567 25.22C289.567 29.42 286.957 32 282.307 32H269.047V10.22H274.507ZM274.507 22.79V27.53H280.357C283.027 27.53 284.107 27.08 284.107 25.07C284.107 23.12 282.817 22.79 280.087 22.79H274.507ZM298.706 10.22V18.32H309.176V10.22H314.636V32H309.176V22.79H298.706V32H293.246V10.22H298.706ZM316.466 32L326.786 10.22H332.006L341.936 32H335.876L333.896 27.38H324.296L322.346 32H316.466ZM326.156 22.97H331.916L329.006 16.25L326.156 22.97ZM363.374 10.22V32H357.914V23.93H353.804L348.614 32H342.584L348.254 23.45C344.984 23.06 342.794 20.66 342.794 17.03C342.794 12.83 345.524 10.22 350.144 10.22H363.374ZM357.914 19.46V14.69H352.064C349.364 14.69 348.254 15.17 348.254 17.18C348.254 19.13 349.604 19.46 352.334 19.46H357.914ZM379.262 10.22H384.512V25.58L395.402 10.22H402.122V32H396.872V16.49L385.892 32H379.262V10.22ZM406.977 10.22H423.597V14.69H412.437V32H406.977V10.22ZM426.928 32V10.22H439.828C444.928 10.22 447.838 13.04 447.838 17.63C447.838 22.25 444.928 25.16 439.828 25.16H432.388V32H426.928ZM432.388 14.69V20.69H437.398C440.788 20.69 442.378 20.12 442.378 17.72C442.378 15.23 440.998 14.69 437.758 14.69H432.388ZM446.72 32L457.04 10.22H462.26L472.19 32H466.13L464.15 27.38H454.55L452.6 32H446.72ZM456.41 22.97H462.17L459.26 16.25L456.41 22.97ZM5.71223 71V49.22H19.7822C24.6722 49.22 27.1322 51.02 27.1322 54.65C27.1322 56.75 26.1122 58.43 24.1622 59.42C26.6822 60.23 27.9422 62.06 27.9422 64.79C27.9422 68.54 25.3922 71 20.8922 71H5.71223ZM11.1722 61.76V66.53H18.4322C21.0122 66.53 22.2422 66.26 22.2422 64.28C22.2422 62.42 21.0422 61.76 18.4322 61.76H11.1722ZM11.1722 53.69V57.95H17.6222C20.2022 57.95 21.4322 57.56 21.4322 55.7C21.4322 54.02 20.2322 53.69 17.6222 53.69H11.1722ZM45.9856 49.22H65.9056V66.53H68.4856V75.62H63.2656V71H46.4056V75.62H41.1856V66.53H42.8956C45.5656 64.64 45.9856 60.35 45.9856 55.61V49.22ZM60.4456 53.69H51.2656V55.76C51.2656 61.61 50.3356 65.24 48.5056 66.53H60.4456V53.69ZM83.7446 48.65C91.7546 48.65 96.7646 53.21 96.7646 60.11C96.7646 67.01 91.7546 71.57 83.7446 71.57C75.7346 71.57 70.6946 67.01 70.6946 60.11C70.6946 53.21 75.7346 48.65 83.7446 48.65ZM83.7446 53.12C79.3946 53.12 76.6946 55.76 76.6946 60.11C76.6946 64.46 79.3946 67.1 83.7446 67.1C88.0946 67.1 90.7646 64.46 90.7646 60.11C90.7646 55.73 88.0946 53.12 83.7446 53.12ZM100.458 49.22H121.848V71H116.388V53.69H105.918V71H100.458V49.22ZM138.588 48.65C146.598 48.65 151.608 53.21 151.608 60.11C151.608 67.01 146.598 71.57 138.588 71.57C130.578 71.57 125.538 67.01 125.538 60.11C125.538 53.21 130.578 48.65 138.588 48.65ZM138.588 53.12C134.238 53.12 131.538 55.76 131.538 60.11C131.538 64.46 134.238 67.1 138.588 67.1C142.938 67.1 145.608 64.46 145.608 60.11C145.608 55.73 142.938 53.12 138.588 53.12ZM157.552 49.22H178.042V71H172.582V53.69H163.012V62.27C163.012 67.91 161.332 71.57 156.202 71.57C154.972 71.57 153.832 71.48 152.872 71.24V66.56C153.202 66.65 153.772 66.74 154.492 66.74C156.952 66.74 157.552 65.6 157.552 60.59V49.22ZM188.36 49.22V57.32H198.83V49.22H204.29V71H198.83V61.79H188.36V71H182.9V49.22H188.36ZM209.15 49.22H228.5V53.69H214.61V57.32H226.97V61.79H214.61V66.53H228.5V71H209.15V49.22ZM238.018 49.22V57.32H248.488V49.22H253.948V71H248.488V61.79H238.018V71H232.558V49.22H238.018ZM264.268 49.22V57.32H274.738V49.22H280.198V71H274.738V61.79H264.268V71H258.808V49.22H264.268ZM296.938 48.65C304.948 48.65 309.958 53.21 309.958 60.11C309.958 67.01 304.948 71.57 296.938 71.57C288.928 71.57 283.888 67.01 283.888 60.11C283.888 53.21 288.928 48.65 296.938 48.65ZM296.938 53.12C292.588 53.12 289.888 55.76 289.888 60.11C289.888 64.46 292.588 67.1 296.938 67.1C301.288 67.1 303.958 64.46 303.958 60.11C303.958 55.73 301.288 53.12 296.938 53.12ZM313.652 49.22H318.902V64.58L329.792 49.22H336.512V71H331.262V55.49L320.282 71H313.652V49.22ZM318.632 41.96H321.272C321.452 42.92 322.292 44.12 324.572 44.12C327.122 44.12 327.842 42.92 327.992 41.96H330.572C330.482 43.46 329.492 47.3 324.572 47.3C319.712 47.3 318.722 43.46 318.632 41.96ZM352.382 71V49.22H365.282C370.382 49.22 373.292 52.04 373.292 56.63C373.292 61.25 370.382 64.16 365.282 64.16H357.842V71H352.382ZM357.842 53.69V59.69H362.852C366.242 59.69 367.832 59.12 367.832 56.72C367.832 54.23 366.452 53.69 363.212 53.69H357.842ZM376.992 49.22H396.342V53.69H382.452V57.32H394.812V61.79H382.452V66.53H396.342V71H376.992V49.22ZM397.37 71L407.69 49.22H412.91L422.84 71H416.78L414.8 66.38H405.2L403.25 71H397.37ZM407.06 61.97H412.82L409.91 55.25L407.06 61.97ZM426.908 49.22H447.398V71H441.938V53.69H432.368V62.27C432.368 67.91 430.688 71.57 425.558 71.57C424.328 71.57 423.188 71.48 422.228 71.24V66.56C422.558 66.65 423.128 66.74 423.848 66.74C426.308 66.74 426.908 65.6 426.908 60.59V49.22ZM457.715 49.22V57.32H465.485C470.105 57.32 472.775 59.99 472.775 64.22C472.775 68.42 470.165 71 465.515 71H452.255V49.22H457.715ZM457.715 61.79V66.53H463.565C466.235 66.53 467.315 66.08 467.315 64.07C467.315 62.12 466.025 61.79 463.295 61.79H457.715ZM481.914 49.22V57.32H492.384V49.22H497.844V71H492.384V61.79H481.914V71H476.454V49.22H481.914ZM514.584 48.65C522.594 48.65 527.604 53.21 527.604 60.11C527.604 67.01 522.594 71.57 514.584 71.57C506.574 71.57 501.534 67.01 501.534 60.11C501.534 53.21 506.574 48.65 514.584 48.65ZM514.584 53.12C510.234 53.12 507.534 55.76 507.534 60.11C507.534 64.46 510.234 67.1 514.584 67.1C518.934 67.1 521.604 64.46 521.604 60.11C521.604 55.73 518.934 53.12 514.584 53.12ZM555.628 57.17H549.688C548.968 54.5 546.778 53.12 543.178 53.12C538.828 53.12 536.128 55.76 536.128 60.11C536.128 64.46 538.828 67.1 543.178 67.1C547.018 67.1 549.388 65.39 549.748 62.54H555.718C555.148 67.91 550.348 71.57 543.178 71.57C535.168 71.57 530.128 67.01 530.128 60.11C530.128 53.21 535.168 48.65 543.178 48.65C550.348 48.65 555.088 52.25 555.628 57.17ZM556.784 49.22H577.184V53.69H569.714V71H564.254V53.69H556.784V49.22ZM579.433 49.22H584.683V64.58L595.573 49.22H602.293V71H597.043V55.49L586.063 71H579.433V49.22Z"/>
</mask>
<path d="M127.836 10.22H134.886L141.906 25.82L149.106 10.22H156.096V32H150.846V17.45L144.096 32H139.566L133.086 17.21V32H127.836V10.22ZM172.822 9.65C180.832 9.65 185.842 14.21 185.842 21.11C185.842 28.01 180.832 32.57 172.822 32.57C164.812 32.57 159.772 28.01 159.772 21.11C159.772 14.21 164.812 9.65 172.822 9.65ZM172.822 14.12C168.472 14.12 165.772 16.76 165.772 21.11C165.772 25.46 168.472 28.1 172.822 28.1C177.172 28.1 179.842 25.46 179.842 21.11C179.842 16.73 177.172 14.12 172.822 14.12ZM189.535 10.22H207.835V14.69H194.995V18.32H202.765C207.385 18.32 210.055 20.99 210.055 25.22C210.055 29.42 207.445 32 202.795 32H189.535V10.22ZM194.995 22.79V27.53H200.845C203.515 27.53 204.595 27.08 204.595 25.07C204.595 23.12 203.305 22.79 200.575 22.79H194.995ZM213.735 10.22H218.985V25.58L229.875 10.22H236.595V32H231.345V16.49L220.365 32H213.735V10.22ZM243.7 10.22H264.19V32H258.73V14.69H249.16V23.27C249.16 28.91 247.48 32.57 242.35 32.57C241.12 32.57 239.98 32.48 239.02 32.24V27.56C239.35 27.65 239.92 27.74 240.64 27.74C243.1 27.74 243.7 26.6 243.7 21.59V10.22ZM274.507 10.22V18.32H282.277C286.897 18.32 289.567 20.99 289.567 25.22C289.567 29.42 286.957 32 282.307 32H269.047V10.22H274.507ZM274.507 22.79V27.53H280.357C283.027 27.53 284.107 27.08 284.107 25.07C284.107 23.12 282.817 22.79 280.087 22.79H274.507ZM298.706 10.22V18.32H309.176V10.22H314.636V32H309.176V22.79H298.706V32H293.246V10.22H298.706ZM316.466 32L326.786 10.22H332.006L341.936 32H335.876L333.896 27.38H324.296L322.346 32H316.466ZM326.156 22.97H331.916L329.006 16.25L326.156 22.97ZM363.374 10.22V32H357.914V23.93H353.804L348.614 32H342.584L348.254 23.45C344.984 23.06 342.794 20.66 342.794 17.03C342.794 12.83 345.524 10.22 350.144 10.22H363.374ZM357.914 19.46V14.69H352.064C349.364 14.69 348.254 15.17 348.254 17.18C348.254 19.13 349.604 19.46 352.334 19.46H357.914ZM379.262 10.22H384.512V25.58L395.402 10.22H402.122V32H396.872V16.49L385.892 32H379.262V10.22ZM406.977 10.22H423.597V14.69H412.437V32H406.977V10.22ZM426.928 32V10.22H439.828C444.928 10.22 447.838 13.04 447.838 17.63C447.838 22.25 444.928 25.16 439.828 25.16H432.388V32H426.928ZM432.388 14.69V20.69H437.398C440.788 20.69 442.378 20.12 442.378 17.72C442.378 15.23 440.998 14.69 437.758 14.69H432.388ZM446.72 32L457.04 10.22H462.26L472.19 32H466.13L464.15 27.38H454.55L452.6 32H446.72ZM456.41 22.97H462.17L459.26 16.25L456.41 22.97ZM5.71223 71V49.22H19.7822C24.6722 49.22 27.1322 51.02 27.1322 54.65C27.1322 56.75 26.1122 58.43 24.1622 59.42C26.6822 60.23 27.9422 62.06 27.9422 64.79C27.9422 68.54 25.3922 71 20.8922 71H5.71223ZM11.1722 61.76V66.53H18.4322C21.0122 66.53 22.2422 66.26 22.2422 64.28C22.2422 62.42 21.0422 61.76 18.4322 61.76H11.1722ZM11.1722 53.69V57.95H17.6222C20.2022 57.95 21.4322 57.56 21.4322 55.7C21.4322 54.02 20.2322 53.69 17.6222 53.69H11.1722ZM45.9856 49.22H65.9056V66.53H68.4856V75.62H63.2656V71H46.4056V75.62H41.1856V66.53H42.8956C45.5656 64.64 45.9856 60.35 45.9856 55.61V49.22ZM60.4456 53.69H51.2656V55.76C51.2656 61.61 50.3356 65.24 48.5056 66.53H60.4456V53.69ZM83.7446 48.65C91.7546 48.65 96.7646 53.21 96.7646 60.11C96.7646 67.01 91.7546 71.57 83.7446 71.57C75.7346 71.57 70.6946 67.01 70.6946 60.11C70.6946 53.21 75.7346 48.65 83.7446 48.65ZM83.7446 53.12C79.3946 53.12 76.6946 55.76 76.6946 60.11C76.6946 64.46 79.3946 67.1 83.7446 67.1C88.0946 67.1 90.7646 64.46 90.7646 60.11C90.7646 55.73 88.0946 53.12 83.7446 53.12ZM100.458 49.22H121.848V71H116.388V53.69H105.918V71H100.458V49.22ZM138.588 48.65C146.598 48.65 151.608 53.21 151.608 60.11C151.608 67.01 146.598 71.57 138.588 71.57C130.578 71.57 125.538 67.01 125.538 60.11C125.538 53.21 130.578 48.65 138.588 48.65ZM138.588 53.12C134.238 53.12 131.538 55.76 131.538 60.11C131.538 64.46 134.238 67.1 138.588 67.1C142.938 67.1 145.608 64.46 145.608 60.11C145.608 55.73 142.938 53.12 138.588 53.12ZM157.552 49.22H178.042V71H172.582V53.69H163.012V62.27C163.012 67.91 161.332 71.57 156.202 71.57C154.972 71.57 153.832 71.48 152.872 71.24V66.56C153.202 66.65 153.772 66.74 154.492 66.74C156.952 66.74 157.552 65.6 157.552 60.59V49.22ZM188.36 49.22V57.32H198.83V49.22H204.29V71H198.83V61.79H188.36V71H182.9V49.22H188.36ZM209.15 49.22H228.5V53.69H214.61V57.32H226.97V61.79H214.61V66.53H228.5V71H209.15V49.22ZM238.018 49.22V57.32H248.488V49.22H253.948V71H248.488V61.79H238.018V71H232.558V49.22H238.018ZM264.268 49.22V57.32H274.738V49.22H280.198V71H274.738V61.79H264.268V71H258.808V49.22H264.268ZM296.938 48.65C304.948 48.65 309.958 53.21 309.958 60.11C309.958 67.01 304.948 71.57 296.938 71.57C288.928 71.57 283.888 67.01 283.888 60.11C283.888 53.21 288.928 48.65 296.938 48.65ZM296.938 53.12C292.588 53.12 289.888 55.76 289.888 60.11C289.888 64.46 292.588 67.1 296.938 67.1C301.288 67.1 303.958 64.46 303.958 60.11C303.958 55.73 301.288 53.12 296.938 53.12ZM313.652 49.22H318.902V64.58L329.792 49.22H336.512V71H331.262V55.49L320.282 71H313.652V49.22ZM318.632 41.96H321.272C321.452 42.92 322.292 44.12 324.572 44.12C327.122 44.12 327.842 42.92 327.992 41.96H330.572C330.482 43.46 329.492 47.3 324.572 47.3C319.712 47.3 318.722 43.46 318.632 41.96ZM352.382 71V49.22H365.282C370.382 49.22 373.292 52.04 373.292 56.63C373.292 61.25 370.382 64.16 365.282 64.16H357.842V71H352.382ZM357.842 53.69V59.69H362.852C366.242 59.69 367.832 59.12 367.832 56.72C367.832 54.23 366.452 53.69 363.212 53.69H357.842ZM376.992 49.22H396.342V53.69H382.452V57.32H394.812V61.79H382.452V66.53H396.342V71H376.992V49.22ZM397.37 71L407.69 49.22H412.91L422.84 71H416.78L414.8 66.38H405.2L403.25 71H397.37ZM407.06 61.97H412.82L409.91 55.25L407.06 61.97ZM426.908 49.22H447.398V71H441.938V53.69H432.368V62.27C432.368 67.91 430.688 71.57 425.558 71.57C424.328 71.57 423.188 71.48 422.228 71.24V66.56C422.558 66.65 423.128 66.74 423.848 66.74C426.308 66.74 426.908 65.6 426.908 60.59V49.22ZM457.715 49.22V57.32H465.485C470.105 57.32 472.775 59.99 472.775 64.22C472.775 68.42 470.165 71 465.515 71H452.255V49.22H457.715ZM457.715 61.79V66.53H463.565C466.235 66.53 467.315 66.08 467.315 64.07C467.315 62.12 466.025 61.79 463.295 61.79H457.715ZM481.914 49.22V57.32H492.384V49.22H497.844V71H492.384V61.79H481.914V71H476.454V49.22H481.914ZM514.584 48.65C522.594 48.65 527.604 53.21 527.604 60.11C527.604 67.01 522.594 71.57 514.584 71.57C506.574 71.57 501.534 67.01 501.534 60.11C501.534 53.21 506.574 48.65 514.584 48.65ZM514.584 53.12C510.234 53.12 507.534 55.76 507.534 60.11C507.534 64.46 510.234 67.1 514.584 67.1C518.934 67.1 521.604 64.46 521.604 60.11C521.604 55.73 518.934 53.12 514.584 53.12ZM555.628 57.17H549.688C548.968 54.5 546.778 53.12 543.178 53.12C538.828 53.12 536.128 55.76 536.128 60.11C536.128 64.46 538.828 67.1 543.178 67.1C547.018 67.1 549.388 65.39 549.748 62.54H555.718C555.148 67.91 550.348 71.57 543.178 71.57C535.168 71.57 530.128 67.01 530.128 60.11C530.128 53.21 535.168 48.65 543.178 48.65C550.348 48.65 555.088 52.25 555.628 57.17ZM556.784 49.22H577.184V53.69H569.714V71H564.254V53.69H556.784V49.22ZM579.433 49.22H584.683V64.58L595.573 49.22H602.293V71H597.043V55.49L586.063 71H579.433V49.22Z" fill="white"/>
<path d="M127.836 10.22V5.22H122.836V10.22H127.836ZM134.886 10.22L139.446 8.16818L138.119 5.22H134.886V10.22ZM141.906 25.82L137.347 27.8718L141.849 37.8763L146.446 27.9153L141.906 25.82ZM149.106 10.22V5.22H145.907L144.566 8.12471L149.106 10.22ZM156.096 10.22H161.096V5.22H156.096V10.22ZM156.096 32V37H161.096V32H156.096ZM150.846 32H145.846V37H150.846V32ZM150.846 17.45H155.846L146.311 15.3458L150.846 17.45ZM144.096 32V37H147.289L148.632 34.1042L144.096 32ZM139.566 32L134.987 34.0065L136.298 37H139.566V32ZM133.086 17.21L137.666 15.2035L128.086 17.21H133.086ZM133.086 32V37H138.086V32H133.086ZM127.836 32H122.836V37H127.836V32ZM127.836 15.22H134.886V5.22H127.836V15.22ZM130.327 12.2718L137.347 27.8718L146.466 23.7682L139.446 8.16818L130.327 12.2718ZM146.446 27.9153L153.646 12.3153L144.566 8.12471L137.366 23.7247L146.446 27.9153ZM149.106 15.22H156.096V5.22H149.106V15.22ZM151.096 10.22V32H161.096V10.22H151.096ZM156.096 27H150.846V37H156.096V27ZM155.846 32V17.45H145.846V32H155.846ZM146.311 15.3458L139.561 29.8958L148.632 34.1042L155.382 19.5542L146.311 15.3458ZM144.096 27H139.566V37H144.096V27ZM144.146 29.9935L137.666 15.2035L128.507 19.2165L134.987 34.0065L144.146 29.9935ZM128.086 17.21V32H138.086V17.21H128.086ZM133.086 27H127.836V37H133.086V27ZM132.836 32V10.22H122.836V32H132.836ZM172.822 14.65C175.9 14.65 177.876 15.5187 179.014 16.5302C180.094 17.4897 180.842 18.9403 180.842 21.11H190.842C190.842 16.3796 189.084 12.1003 185.657 9.05477C182.287 6.06128 177.754 4.65 172.822 4.65V14.65ZM180.842 21.11C180.842 23.2796 180.094 24.7303 179.014 25.6898C177.876 26.7013 175.9 27.57 172.822 27.57V37.57C177.754 37.57 182.287 36.1587 185.657 33.1652C189.084 30.1197 190.842 25.8404 190.842 21.11H180.842ZM172.822 27.57C169.743 27.57 167.756 26.7009 166.608 25.6843C165.52 24.7208 164.772 23.2701 164.772 21.11H154.772C154.772 25.8499 156.544 30.1292 159.978 33.1707C163.353 36.1591 167.89 37.57 172.822 37.57V27.57ZM164.772 21.11C164.772 18.9499 165.52 17.4992 166.608 16.5357C167.756 15.5191 169.743 14.65 172.822 14.65V4.65C167.89 4.65 163.353 6.06086 159.978 9.04929C156.544 12.0908 154.772 16.3701 154.772 21.11H164.772ZM172.822 9.12C169.632 9.12 166.501 10.1064 164.152 12.4264C161.795 14.7544 160.772 17.8864 160.772 21.11H170.772C170.772 19.9836 171.099 19.6206 171.179 19.5411C171.268 19.4536 171.661 19.12 172.822 19.12V9.12ZM160.772 21.11C160.772 24.3336 161.795 27.4656 164.152 29.7936C166.501 32.1136 169.632 33.1 172.822 33.1V23.1C171.661 23.1 171.268 22.7664 171.179 22.6789C171.099 22.5994 170.772 22.2364 170.772 21.11H160.772ZM172.822 33.1C176.012 33.1 179.143 32.1124 181.488 29.7827C183.836 27.449 184.842 24.3178 184.842 21.11H174.842C174.842 22.2522 174.513 22.616 174.438 22.6898C174.36 22.7676 173.981 23.1 172.822 23.1V33.1ZM184.842 21.11C184.842 17.8949 183.84 14.7567 181.482 12.4205C179.131 10.091 175.997 9.12 172.822 9.12V19.12C173.996 19.12 174.373 19.454 174.444 19.5245C174.508 19.5883 174.842 19.9451 174.842 21.11H184.842ZM189.535 10.22V5.22H184.535V10.22H189.535ZM207.835 10.22H212.835V5.22H207.835V10.22ZM207.835 14.69V19.69H212.835V14.69H207.835ZM194.995 14.69V9.69H189.995V14.69H194.995ZM194.995 18.32H189.995V23.32H194.995V18.32ZM189.535 32H184.535V37H189.535V32ZM194.995 22.79V17.79H189.995V22.79H194.995ZM194.995 27.53H189.995V32.53H194.995V27.53ZM189.535 15.22H207.835V5.22H189.535V15.22ZM202.835 10.22V14.69H212.835V10.22H202.835ZM207.835 9.69H194.995V19.69H207.835V9.69ZM189.995 14.69V18.32H199.995V14.69H189.995ZM194.995 23.32H202.765V13.32H194.995V23.32ZM202.765 23.32C204.123 23.32 204.583 23.6977 204.679 23.7892C204.752 23.8597 205.055 24.177 205.055 25.22H215.055C215.055 22.033 214.024 18.9003 211.607 16.5783C209.212 14.2773 206.028 13.32 202.765 13.32V23.32ZM205.055 25.22C205.055 26.2656 204.758 26.5295 204.729 26.557C204.667 26.6159 204.219 27 202.795 27V37C206.022 37 209.204 36.0941 211.61 33.813C214.048 31.5005 215.055 28.3744 215.055 25.22H205.055ZM202.795 27H189.535V37H202.795V27ZM194.535 32V10.22H184.535V32H194.535ZM189.995 22.79V27.53H199.995V22.79H189.995ZM194.995 32.53H200.845V22.53H194.995V32.53ZM200.845 32.53C202.103 32.53 204.37 32.5005 206.302 31.3365C209.002 29.7096 209.595 26.9989 209.595 25.07H199.595C199.595 25.1704 199.575 24.8194 199.809 24.2882C200.089 23.65 200.578 23.1105 201.141 22.771C201.602 22.4932 201.919 22.4677 201.795 22.4868C201.684 22.5039 201.406 22.53 200.845 22.53V32.53ZM209.595 25.07C209.595 24.0662 209.434 22.7905 208.758 21.5287C208.036 20.1817 206.953 19.271 205.815 18.7115C203.959 17.7991 201.802 17.79 200.575 17.79V27.79C201.188 27.79 201.545 27.8104 201.752 27.8354C201.981 27.8633 201.779 27.8703 201.404 27.686C200.929 27.4527 200.339 26.9902 199.945 26.2535C199.595 25.602 199.595 25.0988 199.595 25.07H209.595ZM200.575 17.79H194.995V27.79H200.575V17.79ZM213.735 10.22V5.22H208.735V10.22H213.735ZM218.985 10.22H223.985V5.22H218.985V10.22ZM218.985 25.58H213.985V41.2773L223.064 28.4719L218.985 25.58ZM229.875 10.22V5.22H227.29L225.796 7.32814L229.875 10.22ZM236.595 10.22H241.595V5.22H236.595V10.22ZM236.595 32V37H241.595V32H236.595ZM231.345 32H226.345V37H231.345V32ZM231.345 16.49H236.345V0.77362L227.264 13.601L231.345 16.49ZM220.365 32V37H222.951L224.446 34.889L220.365 32ZM213.735 32H208.735V37H213.735V32ZM213.735 15.22H218.985V5.22H213.735V15.22ZM213.985 10.22V25.58H223.985V10.22H213.985ZM223.064 28.4719L233.954 13.1119L225.796 7.32814L214.906 22.6881L223.064 28.4719ZM229.875 15.22H236.595V5.22H229.875V15.22ZM231.595 10.22V32H241.595V10.22H231.595ZM236.595 27H231.345V37H236.595V27ZM236.345 32V16.49H226.345V32H236.345ZM227.264 13.601L216.284 29.111L224.446 34.889L235.426 19.379L227.264 13.601ZM220.365 27H213.735V37H220.365V27ZM218.735 32V10.22H208.735V32H218.735ZM243.7 10.22V5.22H238.7V10.22H243.7ZM264.19 10.22H269.19V5.22H264.19V10.22ZM264.19 32V37H269.19V32H264.19ZM258.73 32H253.73V37H258.73V32ZM258.73 14.69H263.73V9.69H258.73V14.69ZM249.16 14.69V9.69H244.16V14.69H249.16ZM239.02 32.24H234.02V36.1439L237.807 37.0907L239.02 32.24ZM239.02 27.56L240.335 22.7362L234.02 21.0138V27.56H239.02ZM243.7 15.22H264.19V5.22H243.7V15.22ZM259.19 10.22V32H269.19V10.22H259.19ZM264.19 27H258.73V37H264.19V27ZM263.73 32V14.69H253.73V32H263.73ZM258.73 9.69H249.16V19.69H258.73V9.69ZM244.16 14.69V23.27H254.16V14.69H244.16ZM244.16 23.27C244.16 25.7806 243.749 26.908 243.496 27.2951C243.423 27.4058 243.397 27.4107 243.375 27.4212C243.322 27.4474 243.041 27.57 242.35 27.57V37.57C246.292 37.57 249.718 36.0451 251.861 32.7749C253.73 29.922 254.16 26.3994 254.16 23.27H244.16ZM242.35 27.57C241.312 27.57 240.63 27.4887 240.232 27.3893L237.807 37.0907C239.329 37.4713 240.927 37.57 242.35 37.57V27.57ZM244.02 32.24V27.56H234.02V32.24H244.02ZM237.704 32.3838C238.528 32.6085 239.548 32.74 240.64 32.74V22.74C240.485 22.74 240.367 22.7302 240.295 22.7213C240.26 22.717 240.242 22.7137 240.243 22.7139C240.244 22.714 240.252 22.7155 240.266 22.7187C240.28 22.7218 240.303 22.7274 240.335 22.7362L237.704 32.3838ZM240.64 32.74C241.558 32.74 242.893 32.6486 244.246 32.0254C245.777 31.3209 246.873 30.1557 247.56 28.7872C248.168 27.5768 248.41 26.3013 248.534 25.2441C248.662 24.1461 248.7 22.9097 248.7 21.59H238.7C238.7 22.7753 238.662 23.5602 238.601 24.085C238.535 24.6506 238.473 24.5995 238.624 24.3003C238.716 24.1172 238.882 23.85 239.158 23.5749C239.44 23.2934 239.757 23.0833 240.065 22.9418C240.614 22.6889 240.951 22.74 240.64 22.74V32.74ZM248.7 21.59V10.22H238.7V21.59H248.7ZM274.507 10.22H279.507V5.22H274.507V10.22ZM274.507 18.32H269.507V23.32H274.507V18.32ZM269.047 32H264.047V37H269.047V32ZM269.047 10.22V5.22H264.047V10.22H269.047ZM274.507 22.79V17.79H269.507V22.79H274.507ZM274.507 27.53H269.507V32.53H274.507V27.53ZM269.507 10.22V18.32H279.507V10.22H269.507ZM274.507 23.32H282.277V13.32H274.507V23.32ZM282.277 23.32C283.634 23.32 284.095 23.6977 284.19 23.7892C284.264 23.8597 284.567 24.177 284.567 25.22H294.567C294.567 22.033 293.535 18.9003 291.119 16.5783C288.724 14.2773 285.54 13.32 282.277 13.32V23.32ZM284.567 25.22C284.567 26.2656 284.269 26.5295 284.24 26.557C284.178 26.6159 283.731 27 282.307 27V37C285.533 37 288.716 36.0941 291.121 33.813C293.56 31.5005 294.567 28.3744 294.567 25.22H284.567ZM282.307 27H269.047V37H282.307V27ZM274.047 32V10.22H264.047V32H274.047ZM269.047 15.22H274.507V5.22H269.047V15.22ZM269.507 22.79V27.53H279.507V22.79H269.507ZM274.507 32.53H280.357V22.53H274.507V32.53ZM280.357 32.53C281.614 32.53 283.882 32.5005 285.814 31.3365C288.514 29.7096 289.107 26.9989 289.107 25.07H279.107C279.107 25.1704 279.087 24.8194 279.32 24.2882C279.601 23.65 280.09 23.1105 280.653 22.771C281.114 22.4932 281.43 22.4677 281.307 22.4868C281.196 22.5039 280.918 22.53 280.357 22.53V32.53ZM289.107 25.07C289.107 24.0662 288.946 22.7905 288.27 21.5287C287.548 20.1817 286.465 19.271 285.327 18.7115C283.47 17.7991 281.314 17.79 280.087 17.79V27.79C280.7 27.79 281.057 27.8104 281.263 27.8354C281.492 27.8633 281.29 27.8703 280.915 27.686C280.441 27.4527 279.851 26.9902 279.456 26.2535C279.107 25.602 279.107 25.0988 279.107 25.07H289.107ZM280.087 17.79H274.507V27.79H280.087V17.79ZM298.706 10.22H303.706V5.22H298.706V10.22ZM298.706 18.32H293.706V23.32H298.706V18.32ZM309.176 18.32V23.32H314.176V18.32H309.176ZM309.176 10.22V5.22H304.176V10.22H309.176ZM314.636 10.22H319.636V5.22H314.636V10.22ZM314.636 32V37H319.636V32H314.636ZM309.176 32H304.176V37H309.176V32ZM309.176 22.79H314.176V17.79H309.176V22.79ZM298.706 22.79V17.79H293.706V22.79H298.706ZM298.706 32V37H303.706V32H298.706ZM293.246 32H288.246V37H293.246V32ZM293.246 10.22V5.22H288.246V10.22H293.246ZM293.706 10.22V18.32H303.706V10.22H293.706ZM298.706 23.32H309.176V13.32H298.706V23.32ZM314.176 18.32V10.22H304.176V18.32H314.176ZM309.176 15.22H314.636V5.22H309.176V15.22ZM309.636 10.22V32H319.636V10.22H309.636ZM314.636 27H309.176V37H314.636V27ZM314.176 32V22.79H304.176V32H314.176ZM309.176 17.79H298.706V27.79H309.176V17.79ZM293.706 22.79V32H303.706V22.79H293.706ZM298.706 27H293.246V37H298.706V27ZM298.246 32V10.22H288.246V32H298.246ZM293.246 15.22H298.706V5.22H293.246V15.22ZM316.466 32L311.948 29.859L308.564 37H316.466V32ZM326.786 10.22V5.22H323.623L322.268 8.07903L326.786 10.22ZM332.006 10.22L336.556 8.14579L335.222 5.22H332.006V10.22ZM341.936 32V37H349.711L346.486 29.9258L341.936 32ZM335.876 32L331.281 33.9696L332.579 37H335.876V32ZM333.896 27.38L338.492 25.4104L337.193 22.38H333.896V27.38ZM324.296 27.38V22.38H320.98L319.69 25.4357L324.296 27.38ZM322.346 32V37H325.663L326.953 33.9443L322.346 32ZM326.156 22.97L321.553 21.0178L318.605 27.97H326.156V22.97ZM331.916 22.97V27.97H339.53L336.505 20.9831L331.916 22.97ZM329.006 16.25L333.595 14.2631L328.959 3.55695L324.403 14.2978L329.006 16.25ZM320.985 34.141L331.305 12.361L322.268 8.07903L311.948 29.859L320.985 34.141ZM326.786 15.22H332.006V5.22H326.786V15.22ZM327.457 12.2942L337.387 34.0742L346.486 29.9258L336.556 8.14579L327.457 12.2942ZM341.936 27H335.876V37H341.936V27ZM340.472 30.0304L338.492 25.4104L329.301 29.3496L331.281 33.9696L340.472 30.0304ZM333.896 22.38H324.296V32.38H333.896V22.38ZM319.69 25.4357L317.74 30.0557L326.953 33.9443L328.903 29.3243L319.69 25.4357ZM322.346 27H316.466V37H322.346V27ZM326.156 27.97H331.916V17.97H326.156V27.97ZM336.505 20.9831L333.595 14.2631L324.418 18.2369L327.328 24.9569L336.505 20.9831ZM324.403 14.2978L321.553 21.0178L330.76 24.9222L333.61 18.2022L324.403 14.2978ZM363.374 10.22H368.374V5.22H363.374V10.22ZM363.374 32V37H368.374V32H363.374ZM357.914 32H352.914V37H357.914V32ZM357.914 23.93H362.914V18.93H357.914V23.93ZM353.804 23.93V18.93H351.075L349.599 21.2254L353.804 23.93ZM348.614 32V37H351.343L352.82 34.7046L348.614 32ZM342.584 32L338.417 29.2366L333.269 37H342.584V32ZM348.254 23.45L352.421 26.2134L356.909 19.4467L348.846 18.4852L348.254 23.45ZM357.914 19.46V24.46H362.914V19.46H357.914ZM357.914 14.69H362.914V9.69H357.914V14.69ZM358.374 10.22V32H368.374V10.22H358.374ZM363.374 27H357.914V37H363.374V27ZM362.914 32V23.93H352.914V32H362.914ZM357.914 18.93H353.804V28.93H357.914V18.93ZM349.599 21.2254L344.409 29.2954L352.82 34.7046L358.01 26.6346L349.599 21.2254ZM348.614 27H342.584V37H348.614V27ZM346.751 34.7634L352.421 26.2134L344.087 20.6866L338.417 29.2366L346.751 34.7634ZM348.846 18.4852C348.307 18.4209 348.129 18.2415 348.075 18.1789C348.017 18.1122 347.794 17.8202 347.794 17.03H337.794C337.794 19.8698 338.666 22.5928 340.521 24.7311C342.379 26.8735 344.931 28.0891 347.662 28.4148L348.846 18.4852ZM347.794 17.03C347.794 16.0477 348.082 15.767 348.151 15.7031C348.259 15.6015 348.756 15.22 350.144 15.22V5.22C346.913 5.22 343.734 6.14345 341.323 8.39689C338.871 10.688 337.794 13.8123 337.794 17.03H347.794ZM350.144 15.22H363.374V5.22H350.144V15.22ZM362.914 19.46V14.69H352.914V19.46H362.914ZM357.914 9.69H352.064V19.69H357.914V9.69ZM352.064 9.69C350.761 9.69 348.496 9.73344 346.563 10.9007C343.884 12.5176 343.254 15.2021 343.254 17.18H353.254C353.254 17.0957 353.272 17.4507 353.036 17.9809C352.754 18.6112 352.273 19.1344 351.731 19.4618C351.285 19.7307 350.984 19.7551 351.11 19.7352C351.224 19.7172 351.505 19.69 352.064 19.69V9.69ZM343.254 17.18C343.254 18.2153 343.43 19.5119 344.135 20.7837C344.881 22.1285 345.98 23.0172 347.104 23.5577C348.954 24.4466 351.094 24.46 352.334 24.46V14.46C351.723 14.46 351.358 14.4398 351.142 14.4138C350.903 14.385 351.083 14.3749 351.437 14.5448C351.882 14.759 352.473 15.1996 352.88 15.9341C353.247 16.5956 353.254 17.1197 353.254 17.18H343.254ZM352.334 24.46H357.914V14.46H352.334V24.46ZM379.262 10.22V5.22H374.262V10.22H379.262ZM384.512 10.22H389.512V5.22H384.512V10.22ZM384.512 25.58H379.512V41.2773L388.591 28.4719L384.512 25.58ZM395.402 10.22V5.22H392.818L391.323 7.32814L395.402 10.22ZM402.122 10.22H407.122V5.22H402.122V10.22ZM402.122 32V37H407.122V32H402.122ZM396.872 32H391.872V37H396.872V32ZM396.872 16.49H401.872V0.77362L392.791 13.601L396.872 16.49ZM385.892 32V37H388.478L389.973 34.889L385.892 32ZM379.262 32H374.262V37H379.262V32ZM379.262 15.22H384.512V5.22H379.262V15.22ZM379.512 10.22V25.58H389.512V10.22H379.512ZM388.591 28.4719L399.481 13.1119L391.323 7.32814L380.433 22.6881L388.591 28.4719ZM395.402 15.22H402.122V5.22H395.402V15.22ZM397.122 10.22V32H407.122V10.22H397.122ZM402.122 27H396.872V37H402.122V27ZM401.872 32V16.49H391.872V32H401.872ZM392.791 13.601L381.811 29.111L389.973 34.889L400.953 19.379L392.791 13.601ZM385.892 27H379.262V37H385.892V27ZM384.262 32V10.22H374.262V32H384.262ZM406.977 10.22V5.22H401.977V10.22H406.977ZM423.597 10.22H428.597V5.22H423.597V10.22ZM423.597 14.69V19.69H428.597V14.69H423.597ZM412.437 14.69V9.69H407.437V14.69H412.437ZM412.437 32V37H417.437V32H412.437ZM406.977 32H401.977V37H406.977V32ZM406.977 15.22H423.597V5.22H406.977V15.22ZM418.597 10.22V14.69H428.597V10.22H418.597ZM423.597 9.69H412.437V19.69H423.597V9.69ZM407.437 14.69V32H417.437V14.69H407.437ZM412.437 27H406.977V37H412.437V27ZM411.977 32V10.22H401.977V32H411.977ZM426.928 32H421.928V37H426.928V32ZM426.928 10.22V5.22H421.928V10.22H426.928ZM432.388 25.16V20.16H427.388V25.16H432.388ZM432.388 32V37H437.388V32H432.388ZM432.388 14.69V9.69H427.388V14.69H432.388ZM432.388 20.69H427.388V25.69H432.388V20.69ZM431.928 32V10.22H421.928V32H431.928ZM426.928 15.22H439.828V5.22H426.928V15.22ZM439.828 15.22C441.482 15.22 442.13 15.6676 442.327 15.8527C442.484 15.9994 442.838 16.4186 442.838 17.63H452.838C452.838 14.2514 451.737 10.9656 449.164 8.55481C446.631 6.18238 443.274 5.22 439.828 5.22V15.22ZM442.838 17.63C442.838 18.8701 442.474 19.3379 442.29 19.5134C442.081 19.7131 441.441 20.16 439.828 20.16V30.16C443.315 30.16 446.68 29.1519 449.201 26.7416C451.747 24.3071 452.838 21.0099 452.838 17.63H442.838ZM439.828 20.16H432.388V30.16H439.828V20.16ZM427.388 25.16V32H437.388V25.16H427.388ZM432.388 27H426.928V37H432.388V27ZM427.388 14.69V20.69H437.388V14.69H427.388ZM432.388 25.69H437.398V15.69H432.388V25.69ZM437.398 25.69C439.072 25.69 441.486 25.6083 443.531 24.5067C444.729 23.8613 445.805 22.8727 446.519 21.4921C447.195 20.1832 447.378 18.8456 447.378 17.72H437.378C437.378 17.7944 437.362 17.4281 437.635 16.901C437.773 16.6326 437.96 16.3765 438.186 16.1537C438.408 15.9348 438.624 15.7915 438.788 15.7033C439.08 15.546 439.192 15.5711 438.887 15.6154C438.599 15.6572 438.133 15.69 437.398 15.69V25.69ZM447.378 17.72C447.378 15.4996 446.677 12.6626 443.84 10.9743C441.772 9.7441 439.304 9.69 437.758 9.69V19.69C438.462 19.69 438.868 19.7217 439.09 19.7557C439.325 19.7917 439.108 19.7952 438.726 19.5682C438.518 19.444 438.279 19.2622 438.053 19.0107C437.826 18.758 437.661 18.4911 437.551 18.2446C437.343 17.7824 437.378 17.5162 437.378 17.72H447.378ZM437.758 9.69H432.388V19.69H437.758V9.69ZM446.72 32L442.202 29.859L438.818 37H446.72V32ZM457.04 10.22V5.22H453.877L452.522 8.07903L457.04 10.22ZM462.26 10.22L466.81 8.14579L465.476 5.22H462.26V10.22ZM472.19 32V37H479.965L476.74 29.9258L472.19 32ZM466.13 32L461.535 33.9696L462.833 37H466.13V32ZM464.15 27.38L468.746 25.4104L467.447 22.38H464.15V27.38ZM454.55 27.38V22.38H451.234L449.944 25.4357L454.55 27.38ZM452.6 32V37H455.917L457.207 33.9443L452.6 32ZM456.41 22.97L451.807 21.0178L448.859 27.97H456.41V22.97ZM462.17 22.97V27.97H469.784L466.759 20.9831L462.17 22.97ZM459.26 16.25L463.849 14.2631L459.212 3.55695L454.657 14.2978L459.26 16.25ZM451.239 34.141L461.559 12.361L452.522 8.07903L442.202 29.859L451.239 34.141ZM457.04 15.22H462.26V5.22H457.04V15.22ZM457.711 12.2942L467.641 34.0742L476.74 29.9258L466.81 8.14579L457.711 12.2942ZM472.19 27H466.13V37H472.19V27ZM470.726 30.0304L468.746 25.4104L459.555 29.3496L461.535 33.9696L470.726 30.0304ZM464.15 22.38H454.55V32.38H464.15V22.38ZM449.944 25.4357L447.994 30.0557L457.207 33.9443L459.157 29.3243L449.944 25.4357ZM452.6 27H446.72V37H452.6V27ZM456.41 27.97H462.17V17.97H456.41V27.97ZM466.759 20.9831L463.849 14.2631L454.672 18.2369L457.582 24.9569L466.759 20.9831ZM454.657 14.2978L451.807 21.0178L461.013 24.9222L463.863 18.2022L454.657 14.2978ZM5.71223 71H0.712227V76H5.71223V71ZM5.71223 49.22V44.22H0.712227V49.22H5.71223ZM24.1622 59.42L21.8988 54.9617L11.0647 60.462L22.6322 64.1801L24.1622 59.42ZM11.1722 61.76V56.76H6.17223V61.76H11.1722ZM11.1722 66.53H6.17223V71.53H11.1722V66.53ZM11.1722 53.69V48.69H6.17223V53.69H11.1722ZM11.1722 57.95H6.17223V62.95H11.1722V57.95ZM10.7122 71V49.22H0.712227V71H10.7122ZM5.71223 54.22H19.7822V44.22H5.71223V54.22ZM19.7822 54.22C20.7142 54.22 21.3683 54.3074 21.8014 54.4137C22.2303 54.5191 22.3546 54.6208 22.3246 54.5987C22.2652 54.555 22.1697 54.45 22.1153 54.3297C22.0738 54.2378 22.1322 54.3028 22.1322 54.65H32.1322C32.1322 51.5835 31.0114 48.5785 28.2574 46.5488C25.789 44.7296 22.6935 44.22 19.7822 44.22V54.22ZM22.1322 54.65C22.1322 54.7689 22.118 54.8283 22.1144 54.842C22.1113 54.8534 22.1135 54.8415 22.1263 54.8208C22.139 54.8003 22.1442 54.8001 22.1227 54.8192C22.0994 54.84 22.0333 54.8933 21.8988 54.9617L26.4257 63.8783C30.0302 62.0484 32.1322 58.66 32.1322 54.65H22.1322ZM22.6322 64.1801C22.8562 64.2521 22.9496 64.3137 22.964 64.3237C22.9716 64.329 22.9379 64.305 22.9011 64.2523C22.8656 64.2016 22.8703 64.186 22.8877 64.2489C22.9072 64.3193 22.9422 64.4889 22.9422 64.79H32.9422C32.9422 62.6568 32.4439 60.447 31.0934 58.5177C29.7273 56.5661 27.7921 55.3348 25.6923 54.6599L22.6322 64.1801ZM22.9422 64.79C22.9422 65.1605 22.88 65.3653 22.8442 65.4529C22.8127 65.5302 22.7845 65.5626 22.7535 65.5905C22.7061 65.6333 22.2599 66 20.8922 66V76C24.0245 76 27.1033 75.1367 29.456 73.0119C31.8656 70.8357 32.9422 67.8485 32.9422 64.79H22.9422ZM20.8922 66H5.71223V76H20.8922V66ZM6.17223 61.76V66.53H16.1722V61.76H6.17223ZM11.1722 71.53H18.4322V61.53H11.1722V71.53ZM18.4322 71.53C19.5237 71.53 21.6858 71.5471 23.5408 70.6196C24.7023 70.0389 25.767 69.0988 26.4597 67.7468C27.0987 66.4995 27.2422 65.2485 27.2422 64.28H17.2422C17.2422 64.2756 17.242 64.1653 17.2781 63.9814C17.3153 63.792 17.3939 63.5107 17.5598 63.187C17.9412 62.4425 18.5371 61.9411 19.0687 61.6754C19.4865 61.4664 19.7353 61.4672 19.5318 61.4911C19.3508 61.5124 19.0248 61.53 18.4322 61.53V71.53ZM27.2422 64.28C27.2422 62.12 26.4312 59.6471 23.9954 58.1011C22.1015 56.8989 19.9165 56.76 18.4322 56.76V66.76C18.8974 66.76 19.1271 66.7914 19.197 66.8046C19.2724 66.8189 19.0162 66.7849 18.6365 66.5439C18.1966 66.2647 17.7684 65.8184 17.4957 65.2428C17.2491 64.7227 17.2422 64.3349 17.2422 64.28H27.2422ZM18.4322 56.76H11.1722V66.76H18.4322V56.76ZM6.17223 53.69V57.95H16.1722V53.69H6.17223ZM11.1722 62.95H17.6222V52.95H11.1722V62.95ZM17.6222 62.95C18.8485 62.95 20.9681 62.9189 22.8148 61.9517C23.9255 61.3698 24.9513 60.4542 25.6322 59.15C26.273 57.9224 26.4322 56.6867 26.4322 55.7H16.4322C16.4322 55.6433 16.4377 55.1538 16.7673 54.5225C17.1369 53.8145 17.6939 53.3452 18.1747 53.0933C18.5656 52.8886 18.7975 52.8829 18.6261 52.9064C18.4732 52.9274 18.1699 52.95 17.6222 52.95V62.95ZM26.4322 55.7C26.4322 54.7097 26.2579 53.4388 25.5409 52.1891C24.7882 50.877 23.6959 50.0364 22.6219 49.5348C20.8554 48.7097 18.8251 48.69 17.6222 48.69V58.69C18.1967 58.69 18.5345 58.7097 18.7265 58.7326C18.9431 58.7585 18.752 58.7643 18.3901 58.5952C17.9423 58.3861 17.3131 57.943 16.867 57.1653C16.4566 56.4499 16.4322 55.8503 16.4322 55.7H26.4322ZM17.6222 48.69H11.1722V58.69H17.6222V48.69ZM45.9856 49.22V44.22H40.9856V49.22H45.9856ZM65.9056 49.22H70.9056V44.22H65.9056V49.22ZM65.9056 66.53H60.9056V71.53H65.9056V66.53ZM68.4856 66.53H73.4856V61.53H68.4856V66.53ZM68.4856 75.62V80.62H73.4856V75.62H68.4856ZM63.2656 75.62H58.2656V80.62H63.2656V75.62ZM63.2656 71H68.2656V66H63.2656V71ZM46.4056 71V66H41.4056V71H46.4056ZM46.4056 75.62V80.62H51.4056V75.62H46.4056ZM41.1856 75.62H36.1856V80.62H41.1856V75.62ZM41.1856 66.53V61.53H36.1856V66.53H41.1856ZM42.8956 66.53V71.53H44.4862L45.7844 70.611L42.8956 66.53ZM60.4456 53.69H65.4456V48.69H60.4456V53.69ZM51.2656 53.69V48.69H46.2656V53.69H51.2656ZM48.5056 66.53L45.6248 62.4433L32.7344 71.53H48.5056V66.53ZM60.4456 66.53V71.53H65.4456V66.53H60.4456ZM45.9856 54.22H65.9056V44.22H45.9856V54.22ZM60.9056 49.22V66.53H70.9056V49.22H60.9056ZM65.9056 71.53H68.4856V61.53H65.9056V71.53ZM63.4856 66.53V75.62H73.4856V66.53H63.4856ZM68.4856 70.62H63.2656V80.62H68.4856V70.62ZM68.2656 75.62V71H58.2656V75.62H68.2656ZM63.2656 66H46.4056V76H63.2656V66ZM41.4056 71V75.62H51.4056V71H41.4056ZM46.4056 70.62H41.1856V80.62H46.4056V70.62ZM46.1856 75.62V66.53H36.1856V75.62H46.1856ZM41.1856 71.53H42.8956V61.53H41.1856V71.53ZM45.7844 70.611C48.542 68.659 49.7428 65.7373 50.3138 63.263C50.8871 60.7788 50.9856 58.0457 50.9856 55.61H40.9856C40.9856 57.9143 40.8741 59.6962 40.5699 61.0145C40.2634 62.3427 39.9192 62.511 40.0068 62.449L45.7844 70.611ZM50.9856 55.61V49.22H40.9856V55.61H50.9856ZM60.4456 48.69H51.2656V58.69H60.4456V48.69ZM46.2656 53.69V55.76H56.2656V53.69H46.2656ZM46.2656 55.76C46.2656 58.4744 46.0443 60.3808 45.7283 61.6138C45.3802 62.9722 45.1018 62.812 45.6248 62.4433L51.3864 70.6167C53.7393 68.9581 54.8409 66.3378 55.4153 64.0961C56.0219 61.7292 56.2656 58.8956 56.2656 55.76H46.2656ZM48.5056 71.53H60.4456V61.53H48.5056V71.53ZM65.4456 66.53V53.69H55.4456V66.53H65.4456ZM83.7446 53.65C86.8226 53.65 88.7988 54.5187 89.9373 55.5302C91.0171 56.4897 91.7646 57.9403 91.7646 60.11H101.765C101.765 55.3796 100.007 51.1003 96.5794 48.0548C93.2103 45.0613 88.6766 43.65 83.7446 43.65V53.65ZM91.7646 60.11C91.7646 62.2796 91.0171 63.7303 89.9373 64.6898C88.7988 65.7013 86.8226 66.57 83.7446 66.57V76.57C88.6766 76.57 93.2103 75.1587 96.5794 72.1652C100.007 69.1197 101.765 64.8404 101.765 60.11H91.7646ZM83.7446 66.57C80.6661 66.57 78.6786 65.7009 77.5307 64.6843C76.4427 63.7208 75.6946 62.2701 75.6946 60.11H65.6946C65.6946 64.8499 67.4665 69.1292 70.9009 72.1707C74.2755 75.1591 78.813 76.57 83.7446 76.57V66.57ZM75.6946 60.11C75.6946 57.9499 76.4427 56.4992 77.5307 55.5357C78.6786 54.5191 80.6661 53.65 83.7446 53.65V43.65C78.813 43.65 74.2755 45.0609 70.9009 48.0493C67.4665 51.0908 65.6946 55.3701 65.6946 60.11H75.6946ZM83.7446 48.12C80.5551 48.12 77.4236 49.1064 75.0747 51.4264C72.7177 53.7544 71.6946 56.8864 71.6946 60.11H81.6946C81.6946 58.9836 82.0214 58.6206 82.1019 58.5411C82.1905 58.4536 82.584 58.12 83.7446 58.12V48.12ZM71.6946 60.11C71.6946 63.3336 72.7177 66.4656 75.0747 68.7936C77.4236 71.1136 80.5551 72.1 83.7446 72.1V62.1C82.584 62.1 82.1905 61.7664 82.1019 61.6789C82.0214 61.5994 81.6946 61.2364 81.6946 60.11H71.6946ZM83.7446 72.1C86.9353 72.1 90.0662 71.1124 92.4104 68.7827C94.7586 66.449 95.7646 63.3178 95.7646 60.11H85.7646C85.7646 61.2522 85.4355 61.616 85.3613 61.6898C85.2829 61.7676 84.9038 62.1 83.7446 62.1V72.1ZM95.7646 60.11C95.7646 56.8949 94.7629 53.7567 92.4048 51.4205C90.0535 49.091 86.9199 48.12 83.7446 48.12V58.12C84.9193 58.12 85.2957 58.454 85.3668 58.5245C85.4312 58.5883 85.7646 58.9451 85.7646 60.11H95.7646ZM100.458 49.22V44.22H95.4583V49.22H100.458ZM121.848 49.22H126.848V44.22H121.848V49.22ZM121.848 71V76H126.848V71H121.848ZM116.388 71H111.388V76H116.388V71ZM116.388 53.69H121.388V48.69H116.388V53.69ZM105.918 53.69V48.69H100.918V53.69H105.918ZM105.918 71V76H110.918V71H105.918ZM100.458 71H95.4583V76H100.458V71ZM100.458 54.22H121.848V44.22H100.458V54.22ZM116.848 49.22V71H126.848V49.22H116.848ZM121.848 66H116.388V76H121.848V66ZM121.388 71V53.69H111.388V71H121.388ZM116.388 48.69H105.918V58.69H116.388V48.69ZM100.918 53.69V71H110.918V53.69H100.918ZM105.918 66H100.458V76H105.918V66ZM105.458 71V49.22H95.4583V71H105.458ZM138.588 53.65C141.666 53.65 143.643 54.5187 144.781 55.5302C145.861 56.4897 146.608 57.9403 146.608 60.11H156.608C156.608 55.3796 154.851 51.1003 151.423 48.0548C148.054 45.0613 143.52 43.65 138.588 43.65V53.65ZM146.608 60.11C146.608 62.2796 145.861 63.7303 144.781 64.6898C143.643 65.7013 141.666 66.57 138.588 66.57V76.57C143.52 76.57 148.054 75.1587 151.423 72.1652C154.851 69.1197 156.608 64.8404 156.608 60.11H146.608ZM138.588 66.57C135.51 66.57 133.522 65.7009 132.374 64.6843C131.286 63.7208 130.538 62.2701 130.538 60.11H120.538C120.538 64.8499 122.31 69.1292 125.745 72.1707C129.119 75.1591 133.657 76.57 138.588 76.57V66.57ZM130.538 60.11C130.538 57.9499 131.286 56.4992 132.374 55.5357C133.522 54.5191 135.51 53.65 138.588 53.65V43.65C133.657 43.65 129.119 45.0609 125.745 48.0493C122.31 51.0908 120.538 55.3701 120.538 60.11H130.538ZM138.588 48.12C135.399 48.12 132.267 49.1064 129.918 51.4264C127.561 53.7544 126.538 56.8864 126.538 60.11H136.538C136.538 58.9836 136.865 58.6206 136.946 58.5411C137.034 58.4536 137.428 58.12 138.588 58.12V48.12ZM126.538 60.11C126.538 63.3336 127.561 66.4656 129.918 68.7936C132.267 71.1136 135.399 72.1 138.588 72.1V62.1C137.428 62.1 137.034 61.7664 136.946 61.6789C136.865 61.5994 136.538 61.2364 136.538 60.11H126.538ZM138.588 72.1C141.779 72.1 144.91 71.1124 147.254 68.7827C149.602 66.449 150.608 63.3178 150.608 60.11H140.608C140.608 61.2522 140.279 61.616 140.205 61.6898C140.127 61.7676 139.748 62.1 138.588 62.1V72.1ZM150.608 60.11C150.608 56.8949 149.607 53.7567 147.249 51.4205C144.897 49.091 141.764 48.12 138.588 48.12V58.12C139.763 58.12 140.139 58.454 140.211 58.5245C140.275 58.5883 140.608 58.9451 140.608 60.11H150.608ZM157.552 49.22V44.22H152.552V49.22H157.552ZM178.042 49.22H183.042V44.22H178.042V49.22ZM178.042 71V76H183.042V71H178.042ZM172.582 71H167.582V76H172.582V71ZM172.582 53.69H177.582V48.69H172.582V53.69ZM163.012 53.69V48.69H158.012V53.69H163.012ZM152.872 71.24H147.872V75.1439L151.659 76.0907L152.872 71.24ZM152.872 66.56L154.188 61.7362L147.872 60.0138V66.56H152.872ZM157.552 54.22H178.042V44.22H157.552V54.22ZM173.042 49.22V71H183.042V49.22H173.042ZM178.042 66H172.582V76H178.042V66ZM177.582 71V53.69H167.582V71H177.582ZM172.582 48.69H163.012V58.69H172.582V48.69ZM158.012 53.69V62.27H168.012V53.69H158.012ZM158.012 62.27C158.012 64.7806 157.602 65.908 157.348 66.2951C157.276 66.4058 157.249 66.4107 157.228 66.4212C157.174 66.4474 156.894 66.57 156.202 66.57V76.57C160.145 76.57 163.571 75.0451 165.713 71.7749C167.582 68.922 168.012 65.3994 168.012 62.27H158.012ZM156.202 66.57C155.165 66.57 154.482 66.4887 154.085 66.3893L151.659 76.0907C153.182 76.4713 154.779 76.57 156.202 76.57V66.57ZM157.872 71.24V66.56H147.872V71.24H157.872ZM151.556 71.3838C152.38 71.6085 153.401 71.74 154.492 71.74V61.74C154.338 61.74 154.22 61.7302 154.148 61.7213C154.112 61.717 154.095 61.7137 154.096 61.7139C154.097 61.714 154.104 61.7155 154.118 61.7187C154.132 61.7218 154.155 61.7274 154.188 61.7362L151.556 71.3838ZM154.492 71.74C155.411 71.74 156.745 71.6486 158.099 71.0254C159.629 70.3209 160.726 69.1557 161.413 67.7872C162.021 66.5768 162.263 65.3013 162.386 64.2441C162.514 63.1461 162.552 61.9097 162.552 60.59H152.552C152.552 61.7753 152.515 62.5602 152.454 63.085C152.388 63.6506 152.326 63.5995 152.476 63.3003C152.568 63.1172 152.735 62.85 153.01 62.5749C153.293 62.2934 153.61 62.0833 153.917 61.9418C154.466 61.6889 154.803 61.74 154.492 61.74V71.74ZM162.552 60.59V49.22H152.552V60.59H162.552ZM188.36 49.22H193.36V44.22H188.36V49.22ZM188.36 57.32H183.36V62.32H188.36V57.32ZM198.83 57.32V62.32H203.83V57.32H198.83ZM198.83 49.22V44.22H193.83V49.22H198.83ZM204.29 49.22H209.29V44.22H204.29V49.22ZM204.29 71V76H209.29V71H204.29ZM198.83 71H193.83V76H198.83V71ZM198.83 61.79H203.83V56.79H198.83V61.79ZM188.36 61.79V56.79H183.36V61.79H188.36ZM188.36 71V76H193.36V71H188.36ZM182.9 71H177.9V76H182.9V71ZM182.9 49.22V44.22H177.9V49.22H182.9ZM183.36 49.22V57.32H193.36V49.22H183.36ZM188.36 62.32H198.83V52.32H188.36V62.32ZM203.83 57.32V49.22H193.83V57.32H203.83ZM198.83 54.22H204.29V44.22H198.83V54.22ZM199.29 49.22V71H209.29V49.22H199.29ZM204.29 66H198.83V76H204.29V66ZM203.83 71V61.79H193.83V71H203.83ZM198.83 56.79H188.36V66.79H198.83V56.79ZM183.36 61.79V71H193.36V61.79H183.36ZM188.36 66H182.9V76H188.36V66ZM187.9 71V49.22H177.9V71H187.9ZM182.9 54.22H188.36V44.22H182.9V54.22ZM209.15 49.22V44.22H204.15V49.22H209.15ZM228.5 49.22H233.5V44.22H228.5V49.22ZM228.5 53.69V58.69H233.5V53.69H228.5ZM214.61 53.69V48.69H209.61V53.69H214.61ZM214.61 57.32H209.61V62.32H214.61V57.32ZM226.97 57.32H231.97V52.32H226.97V57.32ZM226.97 61.79V66.79H231.97V61.79H226.97ZM214.61 61.79V56.79H209.61V61.79H214.61ZM214.61 66.53H209.61V71.53H214.61V66.53ZM228.5 66.53H233.5V61.53H228.5V66.53ZM228.5 71V76H233.5V71H228.5ZM209.15 71H204.15V76H209.15V71ZM209.15 54.22H228.5V44.22H209.15V54.22ZM223.5 49.22V53.69H233.5V49.22H223.5ZM228.5 48.69H214.61V58.69H228.5V48.69ZM209.61 53.69V57.32H219.61V53.69H209.61ZM214.61 62.32H226.97V52.32H214.61V62.32ZM221.97 57.32V61.79H231.97V57.32H221.97ZM226.97 56.79H214.61V66.79H226.97V56.79ZM209.61 61.79V66.53H219.61V61.79H209.61ZM214.61 71.53H228.5V61.53H214.61V71.53ZM223.5 66.53V71H233.5V66.53H223.5ZM228.5 66H209.15V76H228.5V66ZM214.15 71V49.22H204.15V71H214.15ZM238.018 49.22H243.018V44.22H238.018V49.22ZM238.018 57.32H233.018V62.32H238.018V57.32ZM248.488 57.32V62.32H253.488V57.32H248.488ZM248.488 49.22V44.22H243.488V49.22H248.488ZM253.948 49.22H258.948V44.22H253.948V49.22ZM253.948 71V76H258.948V71H253.948ZM248.488 71H243.488V76H248.488V71ZM248.488 61.79H253.488V56.79H248.488V61.79ZM238.018 61.79V56.79H233.018V61.79H238.018ZM238.018 71V76H243.018V71H238.018ZM232.558 71H227.558V76H232.558V71ZM232.558 49.22V44.22H227.558V49.22H232.558ZM233.018 49.22V57.32H243.018V49.22H233.018ZM238.018 62.32H248.488V52.32H238.018V62.32ZM253.488 57.32V49.22H243.488V57.32H253.488ZM248.488 54.22H253.948V44.22H248.488V54.22ZM248.948 49.22V71H258.948V49.22H248.948ZM253.948 66H248.488V76H253.948V66ZM253.488 71V61.79H243.488V71H253.488ZM248.488 56.79H238.018V66.79H248.488V56.79ZM233.018 61.79V71H243.018V61.79H233.018ZM238.018 66H232.558V76H238.018V66ZM237.558 71V49.22H227.558V71H237.558ZM232.558 54.22H238.018V44.22H232.558V54.22ZM264.268 49.22H269.268V44.22H264.268V49.22ZM264.268 57.32H259.268V62.32H264.268V57.32ZM274.738 57.32V62.32H279.738V57.32H274.738ZM274.738 49.22V44.22H269.738V49.22H274.738ZM280.198 49.22H285.198V44.22H280.198V49.22ZM280.198 71V76H285.198V71H280.198ZM274.738 71H269.738V76H274.738V71ZM274.738 61.79H279.738V56.79H274.738V61.79ZM264.268 61.79V56.79H259.268V61.79H264.268ZM264.268 71V76H269.268V71H264.268ZM258.808 71H253.808V76H258.808V71ZM258.808 49.22V44.22H253.808V49.22H258.808ZM259.268 49.22V57.32H269.268V49.22H259.268ZM264.268 62.32H274.738V52.32H264.268V62.32ZM279.738 57.32V49.22H269.738V57.32H279.738ZM274.738 54.22H280.198V44.22H274.738V54.22ZM275.198 49.22V71H285.198V49.22H275.198ZM280.198 66H274.738V76H280.198V66ZM279.738 71V61.79H269.738V71H279.738ZM274.738 56.79H264.268V66.79H274.738V56.79ZM259.268 61.79V71H269.268V61.79H259.268ZM264.268 66H258.808V76H264.268V66ZM263.808 71V49.22H253.808V71H263.808ZM258.808 54.22H264.268V44.22H258.808V54.22ZM296.938 53.65C300.016 53.65 301.992 54.5187 303.131 55.5302C304.21 56.4897 304.958 57.9403 304.958 60.11H314.958C314.958 55.3796 313.2 51.1003 309.773 48.0548C306.404 45.0613 301.87 43.65 296.938 43.65V53.65ZM304.958 60.11C304.958 62.2796 304.21 63.7303 303.131 64.6898C301.992 65.7013 300.016 66.57 296.938 66.57V76.57C301.87 76.57 306.404 75.1587 309.773 72.1652C313.2 69.1197 314.958 64.8404 314.958 60.11H304.958ZM296.938 66.57C293.859 66.57 291.872 65.7009 290.724 64.6843C289.636 63.7208 288.888 62.2701 288.888 60.11H278.888C278.888 64.8499 280.66 69.1292 284.094 72.1707C287.469 75.1591 292.006 76.57 296.938 76.57V66.57ZM288.888 60.11C288.888 57.9499 289.636 56.4992 290.724 55.5357C291.872 54.5191 293.859 53.65 296.938 53.65V43.65C292.006 43.65 287.469 45.0609 284.094 48.0493C280.66 51.0908 278.888 55.3701 278.888 60.11H288.888ZM296.938 48.12C293.748 48.12 290.617 49.1064 288.268 51.4264C285.911 53.7544 284.888 56.8864 284.888 60.11H294.888C294.888 58.9836 295.215 58.6206 295.295 58.5411C295.384 58.4536 295.777 58.12 296.938 58.12V48.12ZM284.888 60.11C284.888 63.3336 285.911 66.4656 288.268 68.7936C290.617 71.1136 293.748 72.1 296.938 72.1V62.1C295.777 62.1 295.384 61.7664 295.295 61.6789C295.215 61.5994 294.888 61.2364 294.888 60.11H284.888ZM296.938 72.1C300.129 72.1 303.26 71.1124 305.604 68.7827C307.952 66.449 308.958 63.3178 308.958 60.11H298.958C298.958 61.2522 298.629 61.616 298.555 61.6898C298.476 61.7676 298.097 62.1 296.938 62.1V72.1ZM308.958 60.11C308.958 56.8949 307.956 53.7567 305.598 51.4205C303.247 49.091 300.113 48.12 296.938 48.12V58.12C298.113 58.12 298.489 58.454 298.56 58.5245C298.625 58.5883 298.958 58.9451 298.958 60.11H308.958ZM313.652 49.22V44.22H308.652V49.22H313.652ZM318.902 49.22H323.902V44.22H318.902V49.22ZM318.902 64.58H313.902V80.2773L322.981 67.4719L318.902 64.58ZM329.792 49.22V44.22H327.207L325.713 46.3281L329.792 49.22ZM336.512 49.22H341.512V44.22H336.512V49.22ZM336.512 71V76H341.512V71H336.512ZM331.262 71H326.262V76H331.262V71ZM331.262 55.49H336.262V39.7736L327.181 52.601L331.262 55.49ZM320.282 71V76H322.868L324.363 73.889L320.282 71ZM313.652 71H308.652V76H313.652V71ZM318.632 41.96V36.96H313.323L313.641 42.2595L318.632 41.96ZM321.272 41.96L326.186 41.0386L325.421 36.96H321.272V41.96ZM327.992 41.96V36.96H323.712L323.052 41.1881L327.992 41.96ZM330.572 41.96L335.563 42.2595L335.881 36.96H330.572V41.96ZM313.652 54.22H318.902V44.22H313.652V54.22ZM313.902 49.22V64.58H323.902V49.22H313.902ZM322.981 67.4719L333.871 52.1119L325.713 46.3281L314.823 61.6881L322.981 67.4719ZM329.792 54.22H336.512V44.22H329.792V54.22ZM331.512 49.22V71H341.512V49.22H331.512ZM336.512 66H331.262V76H336.512V66ZM336.262 71V55.49H326.262V71H336.262ZM327.181 52.601L316.201 68.111L324.363 73.889L335.343 58.379L327.181 52.601ZM320.282 66H313.652V76H320.282V66ZM318.652 71V49.22H308.652V71H318.652ZM318.632 46.96H321.272V36.96H318.632V46.96ZM316.357 42.8814C316.634 44.358 317.421 46.0143 318.983 47.2823C320.569 48.5692 322.535 49.12 324.572 49.12V39.12C324.328 39.12 324.734 39.0708 325.285 39.5177C325.812 39.9457 326.089 40.522 326.186 41.0386L316.357 42.8814ZM324.572 49.12C326.602 49.12 328.661 48.6387 330.333 47.2823C332.037 45.8986 332.716 44.1115 332.932 42.7319L323.052 41.1881C323.117 40.7685 323.361 40.0614 324.031 39.5177C324.667 39.0013 325.091 39.12 324.572 39.12V49.12ZM327.992 46.96H330.572V36.96H327.992V46.96ZM325.581 41.6605C325.581 41.6496 325.572 41.7582 325.525 41.906C325.48 42.0477 325.43 42.1305 325.405 42.1635C325.395 42.1764 325.4 42.1731 325.38 42.1827C325.358 42.1937 325.137 42.3 324.572 42.3V52.3C328.546 52.3 331.514 50.6474 333.361 48.2215C335.016 46.0481 335.479 43.6539 335.563 42.2595L325.581 41.6605ZM324.572 42.3C324.03 42.3 323.828 42.1974 323.817 42.1921C323.808 42.1875 323.815 42.1949 323.804 42.18C323.777 42.1452 323.726 42.059 323.68 41.9131C323.631 41.7613 323.622 41.6501 323.623 41.6605L313.641 42.2595C313.724 43.6515 314.186 46.037 315.822 48.205C317.651 50.6278 320.603 52.3 324.572 52.3V42.3ZM352.382 71H347.382V76H352.382V71ZM352.382 49.22V44.22H347.382V49.22H352.382ZM357.842 64.16V59.16H352.842V64.16H357.842ZM357.842 71V76H362.842V71H357.842ZM357.842 53.69V48.69H352.842V53.69H357.842ZM357.842 59.69H352.842V64.69H357.842V59.69ZM357.382 71V49.22H347.382V71H357.382ZM352.382 54.22H365.282V44.22H352.382V54.22ZM365.282 54.22C366.936 54.22 367.584 54.6676 367.781 54.8527C367.938 54.9994 368.292 55.4186 368.292 56.63H378.292C378.292 53.2514 377.191 49.9656 374.618 47.5548C372.086 45.1824 368.728 44.22 365.282 44.22V54.22ZM368.292 56.63C368.292 57.8701 367.928 58.3379 367.744 58.5134C367.536 58.7131 366.895 59.16 365.282 59.16V69.16C368.769 69.16 372.134 68.1519 374.655 65.7416C377.201 63.3071 378.292 60.0099 378.292 56.63H368.292ZM365.282 59.16H357.842V69.16H365.282V59.16ZM352.842 64.16V71H362.842V64.16H352.842ZM357.842 66H352.382V76H357.842V66ZM352.842 53.69V59.69H362.842V53.69H352.842ZM357.842 64.69H362.852V54.69H357.842V64.69ZM362.852 64.69C364.526 64.69 366.941 64.6083 368.985 63.5067C370.183 62.8614 371.259 61.8727 371.973 60.4921C372.649 59.1832 372.832 57.8456 372.832 56.72H362.832C362.832 56.7944 362.816 56.4281 363.089 55.901C363.228 55.6326 363.414 55.3765 363.64 55.1537C363.862 54.9348 364.078 54.7915 364.242 54.7033C364.534 54.546 364.646 54.5711 364.341 54.6154C364.053 54.6572 363.587 54.69 362.852 54.69V64.69ZM372.832 56.72C372.832 54.4996 372.131 51.6626 369.294 49.9743C367.226 48.7441 364.758 48.69 363.212 48.69V58.69C363.916 58.69 364.322 58.7217 364.544 58.7557C364.779 58.7917 364.562 58.7952 364.18 58.5682C363.972 58.444 363.733 58.2622 363.507 58.0107C363.28 57.758 363.116 57.4911 363.005 57.2446C362.797 56.7824 362.832 56.5162 362.832 56.72H372.832ZM363.212 48.69H357.842V58.69H363.212V48.69ZM376.992 49.22V44.22H371.992V49.22H376.992ZM396.342 49.22H401.342V44.22H396.342V49.22ZM396.342 53.69V58.69H401.342V53.69H396.342ZM382.452 53.69V48.69H377.452V53.69H382.452ZM382.452 57.32H377.452V62.32H382.452V57.32ZM394.812 57.32H399.812V52.32H394.812V57.32ZM394.812 61.79V66.79H399.812V61.79H394.812ZM382.452 61.79V56.79H377.452V61.79H382.452ZM382.452 66.53H377.452V71.53H382.452V66.53ZM396.342 66.53H401.342V61.53H396.342V66.53ZM396.342 71V76H401.342V71H396.342ZM376.992 71H371.992V76H376.992V71ZM376.992 54.22H396.342V44.22H376.992V54.22ZM391.342 49.22V53.69H401.342V49.22H391.342ZM396.342 48.69H382.452V58.69H396.342V48.69ZM377.452 53.69V57.32H387.452V53.69H377.452ZM382.452 62.32H394.812V52.32H382.452V62.32ZM389.812 57.32V61.79H399.812V57.32H389.812ZM394.812 56.79H382.452V66.79H394.812V56.79ZM377.452 61.79V66.53H387.452V61.79H377.452ZM382.452 71.53H396.342V61.53H382.452V71.53ZM391.342 66.53V71H401.342V66.53H391.342ZM396.342 66H376.992V76H396.342V66ZM381.992 71V49.22H371.992V71H381.992ZM397.37 71L392.851 68.859L389.468 76H397.37V71ZM407.69 49.22V44.22H404.526L403.171 47.079L407.69 49.22ZM412.91 49.22L417.459 47.1458L416.125 44.22H412.91V49.22ZM422.84 71V76H430.615L427.389 68.9258L422.84 71ZM416.78 71L412.184 72.9696L413.483 76H416.78V71ZM414.8 66.38L419.395 64.4104L418.097 61.38H414.8V66.38ZM405.2 66.38V61.38H401.883L400.593 64.4357L405.2 66.38ZM403.25 71V76H406.566L407.856 72.9443L403.25 71ZM407.06 61.97L402.457 60.0178L399.508 66.97H407.06V61.97ZM412.82 61.97V66.97H420.434L417.408 59.9831L412.82 61.97ZM409.91 55.25L414.498 53.2631L409.862 42.557L405.307 53.2978L409.91 55.25ZM401.888 73.141L412.208 51.361L403.171 47.079L392.851 68.859L401.888 73.141ZM407.69 54.22H412.91V44.22H407.69V54.22ZM408.36 51.2942L418.29 73.0742L427.389 68.9258L417.459 47.1458L408.36 51.2942ZM422.84 66H416.78V76H422.84V66ZM421.375 69.0304L419.395 64.4104L410.204 68.3496L412.184 72.9696L421.375 69.0304ZM414.8 61.38H405.2V71.38H414.8V61.38ZM400.593 64.4357L398.643 69.0557L407.856 72.9443L409.806 68.3243L400.593 64.4357ZM403.25 66H397.37V76H403.25V66ZM407.06 66.97H412.82V56.97H407.06V66.97ZM417.408 59.9831L414.498 53.2631L405.321 57.2369L408.231 63.9569L417.408 59.9831ZM405.307 53.2978L402.457 60.0178L411.663 63.9222L414.513 57.2022L405.307 53.2978ZM426.908 49.22V44.22H421.908V49.22H426.908ZM447.398 49.22H452.398V44.22H447.398V49.22ZM447.398 71V76H452.398V71H447.398ZM441.938 71H436.938V76H441.938V71ZM441.938 53.69H446.938V48.69H441.938V53.69ZM432.368 53.69V48.69H427.368V53.69H432.368ZM422.228 71.24H417.228V75.1439L421.015 76.0907L422.228 71.24ZM422.228 66.56L423.543 61.7362L417.228 60.0138V66.56H422.228ZM426.908 54.22H447.398V44.22H426.908V54.22ZM442.398 49.22V71H452.398V49.22H442.398ZM447.398 66H441.938V76H447.398V66ZM446.938 71V53.69H436.938V71H446.938ZM441.938 48.69H432.368V58.69H441.938V48.69ZM427.368 53.69V62.27H437.368V53.69H427.368ZM427.368 62.27C427.368 64.7806 426.957 65.908 426.704 66.2951C426.631 66.4058 426.605 66.4107 426.583 66.4212C426.53 66.4474 426.249 66.57 425.558 66.57V76.57C429.5 76.57 432.926 75.0451 435.069 71.7749C436.938 68.922 437.368 65.3994 437.368 62.27H427.368ZM425.558 66.57C424.52 66.57 423.838 66.4887 423.44 66.3893L421.015 76.0907C422.537 76.4713 424.135 76.57 425.558 76.57V66.57ZM427.228 71.24V66.56H417.228V71.24H427.228ZM420.912 71.3838C421.736 71.6085 422.756 71.74 423.848 71.74V61.74C423.693 61.74 423.575 61.7302 423.503 61.7213C423.468 61.717 423.45 61.7137 423.451 61.7139C423.452 61.714 423.46 61.7155 423.474 61.7187C423.488 61.7218 423.511 61.7274 423.543 61.7362L420.912 71.3838ZM423.848 71.74C424.766 71.74 426.101 71.6486 427.454 71.0254C428.985 70.3209 430.081 69.1557 430.768 67.7872C431.376 66.5768 431.618 65.3013 431.742 64.2441C431.87 63.1461 431.908 61.9097 431.908 60.59H421.908C421.908 61.7753 421.87 62.5602 421.809 63.085C421.743 63.6506 421.681 63.5995 421.832 63.3003C421.924 63.1172 422.09 62.85 422.366 62.5749C422.648 62.2934 422.965 62.0833 423.273 61.9418C423.822 61.6889 424.159 61.74 423.848 61.74V71.74ZM431.908 60.59V49.22H421.908V60.59H431.908ZM457.715 49.22H462.715V44.22H457.715V49.22ZM457.715 57.32H452.715V62.32H457.715V57.32ZM452.255 71H447.255V76H452.255V71ZM452.255 49.22V44.22H447.255V49.22H452.255ZM457.715 61.79V56.79H452.715V61.79H457.715ZM457.715 66.53H452.715V71.53H457.715V66.53ZM452.715 49.22V57.32H462.715V49.22H452.715ZM457.715 62.32H465.485V52.32H457.715V62.32ZM465.485 62.32C466.842 62.32 467.303 62.6977 467.398 62.7892C467.472 62.8597 467.775 63.177 467.775 64.22H477.775C477.775 61.033 476.743 57.9003 474.327 55.5783C471.932 53.2773 468.748 52.32 465.485 52.32V62.32ZM467.775 64.22C467.775 65.2656 467.477 65.5295 467.448 65.557C467.386 65.6159 466.939 66 465.515 66V76C468.741 76 471.924 75.0941 474.329 72.813C476.768 70.5005 477.775 67.3744 477.775 64.22H467.775ZM465.515 66H452.255V76H465.515V66ZM457.255 71V49.22H447.255V71H457.255ZM452.255 54.22H457.715V44.22H452.255V54.22ZM452.715 61.79V66.53H462.715V61.79H452.715ZM457.715 71.53H463.565V61.53H457.715V71.53ZM463.565 71.53C464.822 71.53 467.09 71.5005 469.022 70.3365C471.722 68.7096 472.315 65.9989 472.315 64.07H462.315C462.315 64.1704 462.295 63.8194 462.528 63.2882C462.809 62.65 463.298 62.1105 463.861 61.771C464.322 61.4932 464.638 61.4677 464.515 61.4868C464.404 61.5039 464.126 61.53 463.565 61.53V71.53ZM472.315 64.07C472.315 63.0662 472.154 61.7905 471.478 60.5287C470.756 59.1817 469.673 58.271 468.535 57.7115C466.678 56.7991 464.522 56.79 463.295 56.79V66.79C463.908 66.79 464.265 66.8104 464.471 66.8354C464.7 66.8633 464.498 66.8703 464.123 66.686C463.649 66.4527 463.059 65.9902 462.664 65.2535C462.315 64.602 462.315 64.0988 462.315 64.07H472.315ZM463.295 56.79H457.715V66.79H463.295V56.79ZM481.914 49.22H486.914V44.22H481.914V49.22ZM481.914 57.32H476.914V62.32H481.914V57.32ZM492.384 57.32V62.32H497.384V57.32H492.384ZM492.384 49.22V44.22H487.384V49.22H492.384ZM497.844 49.22H502.844V44.22H497.844V49.22ZM497.844 71V76H502.844V71H497.844ZM492.384 71H487.384V76H492.384V71ZM492.384 61.79H497.384V56.79H492.384V61.79ZM481.914 61.79V56.79H476.914V61.79H481.914ZM481.914 71V76H486.914V71H481.914ZM476.454 71H471.454V76H476.454V71ZM476.454 49.22V44.22H471.454V49.22H476.454ZM476.914 49.22V57.32H486.914V49.22H476.914ZM481.914 62.32H492.384V52.32H481.914V62.32ZM497.384 57.32V49.22H487.384V57.32H497.384ZM492.384 54.22H497.844V44.22H492.384V54.22ZM492.844 49.22V71H502.844V49.22H492.844ZM497.844 66H492.384V76H497.844V66ZM497.384 71V61.79H487.384V71H497.384ZM492.384 56.79H481.914V66.79H492.384V56.79ZM476.914 61.79V71H486.914V61.79H476.914ZM481.914 66H476.454V76H481.914V66ZM481.454 71V49.22H471.454V71H481.454ZM476.454 54.22H481.914V44.22H476.454V54.22ZM514.584 53.65C517.662 53.65 519.639 54.5187 520.777 55.5302C521.857 56.4897 522.604 57.9403 522.604 60.11H532.604C532.604 55.3796 530.847 51.1003 527.419 48.0548C524.05 45.0613 519.516 43.65 514.584 43.65V53.65ZM522.604 60.11C522.604 62.2796 521.857 63.7303 520.777 64.6898C519.639 65.7013 517.662 66.57 514.584 66.57V76.57C519.516 76.57 524.05 75.1587 527.419 72.1652C530.847 69.1197 532.604 64.8404 532.604 60.11H522.604ZM514.584 66.57C511.506 66.57 509.518 65.7009 508.371 64.6843C507.283 63.7208 506.534 62.2701 506.534 60.11H496.534C496.534 64.8499 498.306 69.1292 501.741 72.1707C505.115 75.1591 509.653 76.57 514.584 76.57V66.57ZM506.534 60.11C506.534 57.9499 507.283 56.4992 508.371 55.5357C509.518 54.5191 511.506 53.65 514.584 53.65V43.65C509.653 43.65 505.115 45.0609 501.741 48.0493C498.306 51.0908 496.534 55.3701 496.534 60.11H506.534ZM514.584 48.12C511.395 48.12 508.263 49.1064 505.915 51.4264C503.558 53.7544 502.534 56.8864 502.534 60.11H512.534C512.534 58.9836 512.861 58.6206 512.942 58.5411C513.03 58.4536 513.424 58.12 514.584 58.12V48.12ZM502.534 60.11C502.534 63.3336 503.558 66.4656 505.915 68.7936C508.263 71.1136 511.395 72.1 514.584 72.1V62.1C513.424 62.1 513.03 61.7664 512.942 61.6789C512.861 61.5994 512.534 61.2364 512.534 60.11H502.534ZM514.584 72.1C517.775 72.1 520.906 71.1124 523.25 68.7827C525.598 66.449 526.604 63.3178 526.604 60.11H516.604C516.604 61.2522 516.275 61.616 516.201 61.6898C516.123 61.7676 515.744 62.1 514.584 62.1V72.1ZM526.604 60.11C526.604 56.8949 525.603 53.7567 523.245 51.4205C520.893 49.091 517.76 48.12 514.584 48.12V58.12C515.759 58.12 516.135 58.454 516.207 58.5245C516.271 58.5883 516.604 58.9451 516.604 60.11H526.604ZM555.628 57.17V62.17H561.207L560.598 56.6245L555.628 57.17ZM549.688 57.17L544.861 58.4718L545.858 62.17H549.688V57.17ZM549.748 62.54V57.54H545.34L544.788 61.9134L549.748 62.54ZM555.718 62.54L560.69 63.0678L561.277 57.54H555.718V62.54ZM555.628 52.17H549.688V62.17H555.628V52.17ZM554.516 55.8682C553.855 53.4184 552.409 51.3057 550.161 49.9021C548.027 48.5707 545.565 48.12 543.178 48.12V58.12C544.391 58.12 544.824 58.3593 544.866 58.3854C544.873 58.3901 544.842 58.3686 544.813 58.3287C544.788 58.2942 544.82 58.3207 544.861 58.4718L554.516 55.8682ZM543.178 48.12C539.989 48.12 536.857 49.1064 534.508 51.4264C532.151 53.7544 531.128 56.8864 531.128 60.11H541.128C541.128 58.9836 541.455 58.6206 541.535 58.5411C541.624 58.4536 542.018 58.12 543.178 58.12V48.12ZM531.128 60.11C531.128 63.3336 532.151 66.4656 534.508 68.7936C536.857 71.1136 539.989 72.1 543.178 72.1V62.1C542.018 62.1 541.624 61.7664 541.535 61.6789C541.455 61.5994 541.128 61.2364 541.128 60.11H531.128ZM543.178 72.1C545.788 72.1 548.441 71.524 550.639 69.9823C552.952 68.3599 554.359 65.9388 554.709 63.1666L544.788 61.9134C544.776 62.0014 544.765 61.9785 544.809 61.9041C544.855 61.8271 544.903 61.7911 544.897 61.7952C544.86 61.8209 544.408 62.1 543.178 62.1V72.1ZM549.748 67.54H555.718V57.54H549.748V67.54ZM550.746 62.0122C550.536 63.9928 548.743 66.57 543.178 66.57V76.57C551.953 76.57 559.76 71.8272 560.69 63.0678L550.746 62.0122ZM543.178 66.57C540.1 66.57 538.112 65.7009 536.964 64.6843C535.876 63.7208 535.128 62.2701 535.128 60.11H525.128C525.128 64.8499 526.9 69.1292 530.335 72.1707C533.709 75.1591 538.247 76.57 543.178 76.57V66.57ZM535.128 60.11C535.128 57.9499 535.876 56.4992 536.964 55.5357C538.112 54.5191 540.1 53.65 543.178 53.65V43.65C538.247 43.65 533.709 45.0609 530.335 48.0493C526.9 51.0908 525.128 55.3701 525.128 60.11H535.128ZM543.178 53.65C548.907 53.65 550.503 56.2986 550.658 57.7155L560.598 56.6245C559.674 48.2014 551.789 43.65 543.178 43.65V53.65ZM556.784 49.22V44.22H551.784V49.22H556.784ZM577.184 49.22H582.184V44.22H577.184V49.22ZM577.184 53.69V58.69H582.184V53.69H577.184ZM569.714 53.69V48.69H564.714V53.69H569.714ZM569.714 71V76H574.714V71H569.714ZM564.254 71H559.254V76H564.254V71ZM564.254 53.69H569.254V48.69H564.254V53.69ZM556.784 53.69H551.784V58.69H556.784V53.69ZM556.784 54.22H577.184V44.22H556.784V54.22ZM572.184 49.22V53.69H582.184V49.22H572.184ZM577.184 48.69H569.714V58.69H577.184V48.69ZM564.714 53.69V71H574.714V53.69H564.714ZM569.714 66H564.254V76H569.714V66ZM569.254 71V53.69H559.254V71H569.254ZM564.254 48.69H556.784V58.69H564.254V48.69ZM561.784 53.69V49.22H551.784V53.69H561.784ZM579.433 49.22V44.22H574.433V49.22H579.433ZM584.683 49.22H589.683V44.22H584.683V49.22ZM584.683 64.58H579.683V80.2773L588.762 67.4719L584.683 64.58ZM595.573 49.22V44.22H592.989L591.494 46.3281L595.573 49.22ZM602.293 49.22H607.293V44.22H602.293V49.22ZM602.293 71V76H607.293V71H602.293ZM597.043 71H592.043V76H597.043V71ZM597.043 55.49H602.043V39.7736L592.962 52.601L597.043 55.49ZM586.063 71V76H588.649L590.144 73.889L586.063 71ZM579.433 71H574.433V76H579.433V71ZM579.433 54.22H584.683V44.22H579.433V54.22ZM579.683 49.22V64.58H589.683V49.22H579.683ZM588.762 67.4719L599.652 52.1119L591.494 46.3281L580.604 61.6881L588.762 67.4719ZM595.573 54.22H602.293V44.22H595.573V54.22ZM597.293 49.22V71H607.293V49.22H597.293ZM602.293 66H597.043V76H602.293V66ZM602.043 71V55.49H592.043V71H602.043ZM592.962 52.601L581.982 68.111L590.144 73.889L601.124 58.379L592.962 52.601ZM586.063 66H579.433V76H586.063V66ZM584.433 71V49.22H574.433V71H584.433Z" fill="#0049B8" mask="url(#path-1-outside-1_505_2719)"/>
</svg>
