<svg width="76" height="621" viewBox="0 0 76 621" fill="none" xmlns="http://www.w3.org/2000/svg">
<rect x="1" y="253.973" width="30" height="30" fill="#E31C93"/>
<rect x="31" y="452.973" width="30" height="30" fill="#E31C93"/>
<rect x="6" y="366.973" width="30" height="30" fill="#E31C93"/>
<rect y="178.973" width="30" height="30" fill="#E31C93"/>
<rect x="37" y="103.973" width="30" height="30" fill="#E31C93"/>
<rect x="1" y="0.972656" width="30" height="30" fill="#E31C93"/>
<rect x="45" y="262.973" width="30" height="30" fill="#E31C93"/>
<rect x="1" y="139.973" width="30" height="30" fill="#E31C93"/>
<rect x="46" y="21.9727" width="30" height="30" fill="#E31C93"/>
<rect width="30" height="31" transform="matrix(0 1 1 0 7 590.973)" fill="#E31C93"/>
<rect width="30" height="31" transform="matrix(0 1 1 0 43 534.973)" fill="#E31C93"/>
<rect width="30" height="31" transform="matrix(0 1 1 0 6 497.973)" fill="#E31C93"/>
</svg>
