<svg width="834" height="152" viewBox="0 0 834 152" fill="none" xmlns="http://www.w3.org/2000/svg">
<rect width="30" height="30" transform="matrix(0 1 1 0 0 121.973)" fill="#E31C93"/>
<rect width="30" height="30" transform="matrix(0 1 1 0 30 91.9727)" fill="#E31C93"/>
<rect width="30" height="30" transform="matrix(0 1 1 0 60 31.9727)" fill="#E31C93"/>
<rect width="30" height="30" transform="matrix(0 1 1 0 236 121.973)" fill="#E31C93"/>
<rect width="30" height="30" transform="matrix(0 1 1 0 235 73.9727)" fill="#E31C93"/>
<rect width="30" height="30" transform="matrix(0 1 1 0 113 86.9727)" fill="#E31C93"/>
<rect width="30" height="30" transform="matrix(0 1 1 0 296 121.973)" fill="#E31C93"/>
<rect width="30" height="31" transform="matrix(0 1 1 0 491.5 121.473)" fill="#E31C93"/>
<rect width="30" height="31" transform="matrix(0 1 1 0 772 31.9727)" fill="#E31C93"/>
<rect width="30" height="31" transform="matrix(0 1 1 0 741 61.9727)" fill="#E31C93"/>
<rect width="30" height="31" transform="matrix(0 1 1 0 772 91.9727)" fill="#E31C93"/>
<rect width="30" height="31" transform="matrix(0 1 1 0 803 121.973)" fill="#E31C93"/>
<rect width="30" height="31" transform="matrix(0 1 1 0 638 118.973)" fill="#E31C93"/>
<rect width="30" height="31" transform="matrix(0 1 1 0 461.5 92.4727)" fill="#E31C93"/>
<rect width="32" height="30" transform="matrix(0 1 1 0 402 61.9727)" fill="#E31C93"/>
<rect width="30" height="30" transform="matrix(0 1 1 0 522 0.972656)" fill="#E31C93"/>
<rect width="30" height="30" transform="matrix(0 1 1 0 492 30.9727)" fill="#E31C93"/>
<rect width="30" height="30" transform="matrix(0 1 1 0 522 60.9727)" fill="#E31C93"/>
<rect width="30" height="30" transform="matrix(0 1 1 0 552 30.9727)" fill="#E31C93"/>
<rect width="30" height="30" transform="matrix(0 1 1 0 548 121.973)" fill="#E31C93"/>
</svg>
