<svg width="335" height="129" viewBox="0 0 335 129" fill="none" xmlns="http://www.w3.org/2000/svg">
<rect width="20" height="20" transform="matrix(0 1 1 0 155 20)" fill="#E31C93"/>
<rect width="20" height="20" transform="matrix(0 1 1 0 315 4)" fill="#E31C93"/>
<rect width="20" height="20" transform="matrix(0 1 1 0 315 30)" fill="#E31C93"/>
<rect width="20" height="20" transform="matrix(0 1 1 0 315 61)" fill="#E31C93"/>
<rect width="20" height="20" transform="matrix(0 1 1 0 279 40)" fill="#E31C93"/>
<rect width="20" height="20" transform="matrix(0 1 1 0 220 44)" fill="#E31C93"/>
<rect width="20" height="20" transform="matrix(0 1 1 0 36 24)" fill="#E31C93"/>
<rect width="20" height="20" transform="matrix(0 1 1 0 95 60)" fill="#E31C93"/>
<rect width="20" height="20" transform="matrix(0 1 1 0 0 81)" fill="#E31C93"/>
<rect width="20" height="20" transform="matrix(0 1 1 0 0 109)" fill="#E31C93"/>
<rect width="20" height="20" transform="matrix(0 1 1 0 220 74)" fill="#E31C93"/>
<rect width="20" height="20" transform="matrix(0 1 1 0 152 94)" fill="#E31C93"/>
<rect width="20" height="20" transform="matrix(0 1 1 0 295 99)" fill="#E31C93"/>
<rect width="20" height="20" transform="matrix(0 1 1 0 132 0)" fill="#E31C93"/>
</svg>
