<svg width="432" height="239" viewBox="0 0 432 239" fill="none" xmlns="http://www.w3.org/2000/svg">
<rect width="20" height="20" transform="matrix(0 1 1 0 402 0)" fill="#E31C93"/>
<rect width="20" height="20" transform="matrix(0 1 1 0 0 188)" fill="#E31C93"/>
<rect width="20" height="20" transform="matrix(0 1 1 0 32 149)" fill="#E31C93"/>
<rect width="20" height="20" transform="matrix(0 1 1 0 310 139)" fill="#E31C93"/>
<rect width="20" height="20" transform="matrix(0 1 1 0 207 191)" fill="#E31C93"/>
<rect width="20" height="20" transform="matrix(0 1 1 0 60 219)" fill="#E31C93"/>
<rect width="20" height="20" transform="matrix(0 1 1 0 249 159)" fill="#E31C93"/>
<rect width="20" height="20" transform="matrix(0 1 1 0 152 188)" fill="#E31C93"/>
<rect width="20" height="20" transform="matrix(0 1 1 0 119 139.027)" fill="#E31C93"/>
<rect width="20" height="20" transform="matrix(0 1 1 0 88 169.027)" fill="#E31C93"/>
<rect width="20" height="20" transform="matrix(0 1 1 0 119 199.027)" fill="#E31C93"/>
<rect width="20" height="20" transform="matrix(0 1 1 0 152 219)" fill="#E31C93"/>
<rect width="20" height="20" transform="matrix(0 1 1 0 412 48)" fill="#E31C93"/>
<rect width="20" height="20" transform="matrix(0 1 1 0 249 132)" fill="#E31C93"/>
<rect width="20" height="20" transform="matrix(0 1 1 0 0 129)" fill="#E31C93"/>
<rect width="20" height="20" transform="matrix(0 1 1 0 382 74)" fill="#E31C93"/>
<rect width="20" height="20" transform="matrix(0 1 1 0 342 139)" fill="#E31C93"/>
<rect width="20" height="20" transform="matrix(0 1 1 0 203.5 149)" fill="#E31C93"/>
<rect width="20" height="20" transform="matrix(0 1 1 0 342 69)" fill="#E31C93"/>
<rect width="20" height="20" transform="matrix(0 1 1 0 249 219)" fill="#E31C93"/>
</svg>
