<svg width="204" height="204" viewBox="0 0 204 204" fill="none" xmlns="http://www.w3.org/2000/svg">
<path d="M197.637 109.99C197.52 111.671 196.87 113.073 195.688 114.197L194.333 112.865C195.187 112.086 195.656 111.09 195.74 109.877C195.824 108.677 195.424 107.582 194.54 106.594C193.669 105.619 192.55 105.084 191.186 104.989C189.821 104.894 188.633 105.269 187.622 106.113C186.623 106.97 186.081 107.999 185.998 109.199C185.915 110.387 186.254 111.452 187.014 112.394L185.489 113.506C184.449 112.203 183.988 110.717 184.104 109.049C184.181 107.937 184.533 106.895 185.159 105.922C185.798 104.951 186.665 104.173 187.759 103.589C188.854 103.005 190.039 102.757 191.316 102.846C192.604 102.936 193.75 103.346 194.754 104.076C195.769 104.806 196.52 105.697 197.006 106.746C197.504 107.797 197.714 108.878 197.637 109.99Z" fill="white"/>
<path d="M193.512 131.34L180.587 128.204L181.053 126.284L189.675 128.376L182.016 122.314L182.397 120.745L191.955 118.899L183.351 116.812L183.817 114.891L196.742 118.028L196.294 119.874L184.9 122.193L193.964 129.475L193.512 131.34Z" fill="white"/>
<path d="M189.55 141.331C188.834 142.925 187.611 144.07 185.882 144.765C184.153 145.459 182.405 145.409 180.637 144.615C178.87 143.82 177.672 142.545 177.044 140.791C176.416 139.037 176.461 137.362 177.178 135.768C177.879 134.208 179.099 133.07 180.838 132.352C182.589 131.639 184.343 131.677 186.099 132.467C187.855 133.256 189.041 134.54 189.659 136.317C190.288 138.1 190.252 139.771 189.55 141.331ZM187.818 140.552C188.311 139.454 188.323 138.3 187.854 137.089C187.391 135.895 186.512 135.007 185.218 134.425C183.924 133.843 182.671 133.773 181.459 134.214C180.253 134.672 179.404 135.45 178.91 136.547C178.391 137.702 178.368 138.866 178.841 140.037C179.315 141.208 180.204 142.087 181.51 142.674C182.815 143.261 184.063 143.343 185.253 142.919C186.443 142.496 187.298 141.707 187.818 140.552Z" fill="white"/>
<path d="M180.155 157.667L178.684 156.724L180.612 153.717L170.889 147.48L172.007 145.737L181.73 151.974L183.659 148.967L185.13 149.911L180.155 157.667Z" fill="white"/>
<path d="M175.315 163.706C174.387 164.812 173.354 165.442 172.217 165.596C171.071 165.759 170.033 165.45 169.101 164.668C168.17 163.886 167.685 162.917 167.646 161.761C167.6 160.614 168.041 159.487 168.969 158.381L170.581 156.46L166.739 153.236L168.009 151.722L178.197 160.271L175.315 163.706ZM170.382 159.418C169.812 160.097 169.524 160.765 169.518 161.422C169.505 162.088 169.789 162.666 170.371 163.154C170.953 163.643 171.572 163.822 172.226 163.693C172.871 163.574 173.479 163.175 174.049 162.495L175.588 160.661L171.92 157.584L170.382 159.418Z" fill="white"/>
<path d="M160.597 162.572L155.864 166.941L154.691 165.671L160.904 159.936L169.925 169.708L163.852 175.315L162.679 174.044L167.273 169.804L164.489 166.788L161.292 169.74L160.119 168.469L163.316 165.518L160.597 162.572Z" fill="white"/>
<path d="M154.087 182.588L153.064 181.17L155.96 179.08L149.199 169.713L150.878 168.501L157.639 177.868L160.536 175.777L161.559 177.194L154.087 182.588Z" fill="white"/>
<path d="M140.883 174.803L144.841 172.696L151.092 184.435L149.348 185.364L146.991 180.936L144.777 182.115C143.502 182.794 142.309 182.992 141.197 182.709C140.073 182.431 139.226 181.756 138.654 180.683C138.083 179.61 137.996 178.53 138.393 177.443C138.779 176.362 139.609 175.482 140.883 174.803ZM144.056 180.519L146.169 179.393L143.919 175.167L141.806 176.293C141.023 176.709 140.506 177.221 140.256 177.828C139.994 178.441 140.041 179.083 140.398 179.754C140.756 180.425 141.262 180.823 141.917 180.948C142.56 181.078 143.273 180.935 144.056 180.519Z" fill="white"/>
<path d="M125.742 188.697C124.786 188.644 124.009 188.396 123.412 187.956C122.815 187.515 122.406 186.931 122.185 186.204C121.828 185.028 121.956 183.99 122.569 183.089C123.17 182.191 124.222 181.514 125.725 181.058L130.306 179.666L134.172 192.391L129.7 193.75C128.488 194.118 127.45 194.123 126.586 193.763C125.726 193.415 125.136 192.714 124.815 191.66C124.447 190.448 124.756 189.46 125.742 188.697ZM130.759 187.888L128.159 188.678C126.789 189.094 126.279 189.878 126.629 191.029C126.799 191.587 127.105 191.964 127.549 192.16C127.992 192.356 128.547 192.353 129.214 192.15L131.813 191.361L130.759 187.888ZM126.047 182.707C125.15 182.98 124.543 183.376 124.224 183.896C123.893 184.42 123.835 185.034 124.048 185.737C124.244 186.379 124.636 186.842 125.225 187.127C125.803 187.415 126.528 187.426 127.4 187.161L130.273 186.288L128.919 181.834L126.047 182.707Z" fill="white"/>
<path d="M121.45 195.974L119.497 196.269L118.007 186.425L112.903 197.267L111.043 197.549L109.053 184.398L110.988 184.106L112.477 193.949L117.582 183.108L119.46 182.823L121.45 195.974Z" fill="white"/>
<path d="M92.344 185.981L92.4131 182.999L94.3316 183.044L94.3012 184.354L104.976 184.602L105.007 183.291L106.925 183.335L106.856 186.318L105.318 186.282C104.957 187.072 104.718 188.118 104.599 189.42C104.48 190.735 104.39 192.672 104.331 195.23L104.269 197.889L93.9742 197.65L94.2435 186.025L92.344 185.981ZM103.437 186.238L96.162 186.07L95.931 196.042L102.389 196.192L102.413 195.185C102.452 193.463 102.495 192.159 102.541 191.273C102.574 190.4 102.665 189.477 102.814 188.505C102.963 187.545 103.171 186.79 103.437 186.238Z" fill="white"/>
<path d="M88.7711 185.23L82.4352 184.072L82.7461 182.371L91.0632 183.892L88.6714 196.975L80.5411 195.489L80.8521 193.788L87.0011 194.912L87.7392 190.875L83.4591 190.092L83.7701 188.392L88.0502 189.174L88.7711 185.23Z" fill="white"/>
<path d="M70.6575 192.699C69.0054 192.129 67.7557 191.013 66.9086 189.354C66.0614 187.694 65.9543 185.948 66.5871 184.117C67.22 182.285 68.3819 180.978 70.0729 180.195C71.7639 179.412 73.4354 179.306 75.0876 179.877C76.7038 180.435 77.9475 181.549 78.8186 183.217C79.6856 184.896 79.8047 186.646 79.176 188.466C78.5472 190.286 77.3754 191.583 75.6605 192.357C73.9414 193.144 72.2738 193.258 70.6575 192.699ZM71.278 190.904C72.4154 191.296 73.566 191.205 74.73 190.629C75.8778 190.06 76.6834 189.106 77.1467 187.765C77.6099 186.424 77.5675 185.17 77.0195 184.002C76.4553 182.842 75.6045 182.066 74.4671 181.673C73.2699 181.259 72.1093 181.341 70.9854 181.917C69.8615 182.494 69.0659 183.459 68.5985 184.812C68.1311 186.164 68.1615 187.415 68.6897 188.562C69.218 189.709 70.0808 190.49 71.278 190.904Z" fill="white"/>
<path d="M50.5475 182.982C49.0728 182.043 48.1158 180.669 47.6765 178.858C47.2373 177.047 47.5378 175.324 48.5782 173.689C49.6185 172.054 51.0519 171.052 52.8783 170.682C54.7047 170.313 56.3552 170.598 57.83 171.536C59.2727 172.454 60.2244 173.825 60.685 175.65C61.1388 177.485 60.849 179.214 59.8154 180.839C58.7819 182.463 57.3412 183.453 55.4935 183.809C53.6389 184.175 51.9903 183.9 50.5475 182.982ZM51.5675 181.379C52.5827 182.025 53.7233 182.202 54.9891 181.912C56.2375 181.625 57.2424 180.883 58.004 179.686C58.7655 178.489 59.0151 177.259 58.7528 175.997C58.4729 174.738 57.8253 173.785 56.8101 173.139C55.7414 172.459 54.5936 172.269 53.3666 172.57C52.1396 172.87 51.1419 173.624 50.3736 174.831C49.6052 176.039 49.3449 177.262 49.5928 178.501C49.8406 179.739 50.4988 180.699 51.5675 181.379Z" fill="white"/>
<path d="M42.0958 170.21C41.0102 169.258 40.4031 168.211 40.2745 167.071C40.1364 165.922 40.4683 164.89 41.27 163.976C42.0718 163.062 43.0513 162.598 44.2083 162.585C45.3558 162.564 46.4724 163.029 47.558 163.982L50.9292 166.938L42.1596 176.937L36.1457 171.663L37.2357 170.42L41.7782 174.404L43.9956 171.876L42.0958 170.21ZM46.4911 165.371C45.8245 164.786 45.1629 164.484 44.5064 164.464C43.832 164.446 43.2484 164.717 42.7556 165.279C42.2629 165.841 42.0739 166.45 42.1887 167.107C42.2857 167.765 42.6675 168.386 43.3341 168.971L45.1482 170.562L48.3053 166.962L46.4911 165.371Z" fill="white"/>
<path d="M29.6817 165.023C28.9331 164.163 28.5519 163.185 28.5379 162.088C28.5156 160.983 28.8627 160.118 29.5792 159.494C30.1142 159.028 30.7273 158.797 31.4184 158.8C32.0999 158.811 32.7399 159.035 33.3381 159.471C32.8798 158.829 32.6583 158.073 32.6735 157.203C32.6888 156.333 33.026 155.611 33.6852 155.038C34.5832 154.256 35.6349 153.978 36.8402 154.205C38.0276 154.431 39.0664 155.055 39.9563 156.077C40.8629 157.119 41.3284 158.242 41.3528 159.446C41.3772 160.651 40.9643 161.624 40.114 162.364L38.7648 160.843C39.3189 160.361 39.5664 159.767 39.5074 159.063C39.4401 158.349 39.1693 157.72 38.6953 157.175C38.1962 156.602 37.6163 156.225 36.9554 156.045C36.2862 155.855 35.6411 156.03 35.0201 156.571C34.5043 157.02 34.2806 157.593 34.3492 158.289C34.4177 158.985 34.8215 159.767 35.5605 160.635L34.3711 161.67C33.5985 160.899 32.9537 160.486 32.4367 160.432C31.9197 160.379 31.408 160.572 30.9017 161.013C30.4813 161.379 30.2913 161.855 30.3315 162.441C30.3718 163.028 30.5707 163.526 30.9284 163.937C31.3443 164.415 31.8487 164.715 32.4418 164.836C33.0254 164.967 33.6229 164.765 34.2343 164.233L35.5549 165.779C34.676 166.544 33.6856 166.844 32.5838 166.678C31.4642 166.511 30.4968 165.959 29.6817 165.023Z" fill="white"/>
<path d="M20.7901 153.06C19.8571 151.582 19.5787 149.931 19.9546 148.106C20.3306 146.281 21.3381 144.851 22.977 143.817C24.6159 142.782 26.3399 142.488 28.1491 142.934C29.9583 143.38 31.3294 144.342 32.2623 145.82C33.175 147.266 33.4501 148.912 33.0876 150.759C32.7144 152.612 31.7137 154.052 30.0856 155.08C28.4574 156.108 26.7319 156.388 24.9092 155.92C23.0758 155.46 21.7027 154.506 20.7901 153.06ZM22.3968 152.046C23.0391 153.064 23.9945 153.712 25.2632 153.989C26.5145 154.263 27.74 154.021 28.9397 153.264C30.1394 152.507 30.8902 151.502 31.1922 150.247C31.4767 148.989 31.2978 147.852 30.6556 146.834C29.9795 145.763 29.0227 145.101 27.7849 144.849C26.5472 144.596 25.3232 144.852 24.1127 145.616C22.9023 146.38 22.1447 147.375 21.8399 148.601C21.5352 149.827 21.7208 150.975 22.3968 152.046Z" fill="white"/>
<path d="M13.9705 139.82C13.3981 138.494 13.2984 137.288 13.6713 136.203C14.0392 135.106 14.7814 134.316 15.8977 133.834C17.0141 133.352 18.0977 133.353 19.1485 133.838C20.1943 134.311 21.0034 135.21 21.5758 136.536L22.57 138.838L27.1751 136.85L27.9584 138.664L15.7481 143.936L13.9705 139.82ZM20.0162 137.333C19.6647 136.519 19.1967 135.962 18.6121 135.663C18.0225 135.352 17.3788 135.347 16.681 135.648C15.9833 135.95 15.5455 136.421 15.3676 137.064C15.1847 137.695 15.269 138.417 15.6205 139.231L16.5695 141.429L20.9653 139.531L20.0162 137.333Z" fill="white"/>
<path d="M13.8363 111.558L15.374 111.307L16.9339 120.87L15.3962 121.121L13.8363 111.558Z" fill="white"/>
<path d="M6.57299 92.2225C6.72222 90.5444 7.39897 89.1549 8.60323 88.0539L9.93216 89.412C9.06324 90.174 8.57492 91.1606 8.4672 92.3719C8.3606 93.5705 8.73948 94.6724 9.60384 95.6775C10.4567 96.669 11.5644 97.2253 12.9271 97.3465C14.2897 97.4677 15.4845 97.1161 16.5116 96.2919C17.5271 95.4539 18.0882 94.4356 18.1948 93.237C18.3003 92.051 17.9822 90.9799 17.2407 90.0238L18.7867 88.9405C19.8008 90.2642 20.2338 91.7588 20.0857 93.4242C19.9869 94.5345 19.6151 95.5696 18.9702 96.5296C18.3127 97.4885 17.4311 98.2494 16.3256 98.8123C15.22 99.3753 14.0301 99.6001 12.7558 99.4867C11.4689 99.3723 10.331 98.9405 9.34214 98.1912C8.34067 97.4409 7.60724 96.5364 7.14187 95.4777C6.66387 94.4178 6.47425 93.3328 6.57299 92.2225Z" fill="white"/>
<path d="M11.0962 71.0198L23.9593 74.401L23.4569 76.3121L14.8754 74.0564L22.4184 80.2629L22.0078 81.8248L12.4159 83.488L20.979 85.7389L20.4766 87.65L7.61358 84.2687L8.09661 82.4312L19.5327 80.3295L10.6084 72.8758L11.0962 71.0198Z" fill="white"/>
<path d="M15.1822 61.1927C15.9285 59.6121 17.1725 58.4905 18.9141 57.828C20.6556 57.1655 22.4027 57.2479 24.1552 58.0754C25.9076 58.9028 27.0814 60.1994 27.6765 61.9652C28.2715 63.731 28.1959 65.4042 27.4495 66.9849C26.7194 68.5312 25.4782 69.647 23.7258 70.3324C21.9619 71.0124 20.2095 70.9414 18.4685 70.1194C16.7275 69.2973 15.5648 67.992 14.9806 66.2033C14.3849 64.4092 14.4521 62.739 15.1822 61.1927ZM16.9003 62.0039C16.3865 63.0921 16.353 64.2459 16.7998 65.4654C17.2405 66.668 18.1023 67.5722 19.3852 68.1779C20.668 68.7836 21.9195 68.8772 23.1396 68.4588C24.3537 68.0235 25.2177 67.2618 25.7314 66.1736C26.2722 65.0282 26.3169 63.8657 25.8654 62.6859C25.4138 61.5062 24.5409 60.6108 23.2466 59.9997C21.9523 59.3886 20.7062 59.2835 19.5083 59.6844C18.3105 60.0854 17.4411 60.8585 16.9003 62.0039Z" fill="white"/>
<path d="M25.0091 44.8487L26.4593 45.8245L24.4651 48.788L34.0492 55.2374L32.893 56.9556L23.3089 50.5062L21.3147 53.4697L19.8645 52.4939L25.0091 44.8487Z" fill="white"/>
<path d="M29.9466 38.9001C30.8987 37.8144 31.945 37.2073 33.0855 37.0788C34.2343 36.9407 35.2659 37.2725 36.1801 38.0743C37.0943 38.8761 37.5579 39.8555 37.5708 41.0126C37.5922 42.1601 37.1268 43.2767 36.1746 44.3623L34.5209 46.2478L38.2921 49.5552L36.9891 51.0408L26.9899 42.2712L29.9466 38.9001ZM34.7853 43.2954C35.3699 42.6288 35.6722 41.9672 35.692 41.3107C35.7201 40.6446 35.4485 40.061 34.8772 39.5599C34.3058 39.0588 33.6917 38.8656 33.035 38.9805C32.3867 39.0858 31.7702 39.4717 31.1856 40.1383L29.607 41.9382L33.2068 45.0953L34.7853 43.2954Z" fill="white"/>
<path d="M44.6183 40.3366L49.4452 36.072L50.59 37.3678L44.2537 42.9658L35.4478 32.9986L41.6417 27.5263L42.7865 28.8221L38.1019 32.9608L40.8191 36.0365L44.0798 33.1557L45.2246 34.4514L41.9639 37.3322L44.6183 40.3366Z" fill="white"/>
<path d="M51.3527 20.5757L52.3445 22.0152L49.403 24.0418L55.9573 33.5545L54.2519 34.7295L47.6976 25.2168L44.7562 27.2434L43.7645 25.804L51.3527 20.5757Z" fill="white"/>
<path d="M64.7123 28.409L60.7087 30.4282L54.7196 18.5529L56.4839 17.6631L58.7427 22.1418L60.982 21.0124C62.2713 20.3622 63.4688 20.1909 64.5745 20.4987C65.6915 20.8007 66.5238 21.4946 67.0713 22.5803C67.6189 23.6661 67.6821 24.7478 67.261 25.8256C66.8512 26.8976 66.0016 27.7588 64.7123 28.409ZM61.6673 22.6245L59.5298 23.7025L61.6859 27.9776L63.8234 26.8996C64.6151 26.5003 65.143 26 65.4072 25.3986C65.6826 24.7915 65.6493 24.1487 65.307 23.4701C64.9648 22.7915 64.4677 22.3826 63.8158 22.2432C63.1752 22.0981 62.459 22.2252 61.6673 22.6245Z" fill="white"/>
<path d="M80.0093 14.8794C80.9641 14.9548 81.735 15.2196 82.3221 15.6738C82.9091 16.128 83.3049 16.7212 83.5092 17.4532C83.8395 18.6366 83.688 19.6718 83.0545 20.5588C82.4332 21.4424 81.3661 22.0953 79.8533 22.5176L75.2416 23.805L71.6656 10.9948L76.1675 9.73805C77.3875 9.39748 78.4252 9.41683 79.2807 9.79612C80.1328 10.1632 80.707 10.8775 81.0033 11.9389C81.3439 13.1589 81.0125 14.1391 80.0093 14.8794ZM74.9758 15.5744L77.5928 14.8438C78.9714 14.459 79.4989 13.6871 79.1754 12.528C79.0187 11.9668 78.7209 11.5831 78.282 11.3769C77.843 11.1706 77.288 11.1612 76.617 11.3485L74.0001 12.079L74.9758 15.5744ZM79.5684 20.8612C80.4712 20.6092 81.0877 20.2267 81.418 19.7137C81.7604 19.1973 81.8328 18.5852 81.6353 17.8776C81.4548 17.231 81.0732 16.7589 80.4904 16.4613C79.9197 16.1603 79.1952 16.1324 78.3168 16.3776L75.4254 17.1848L76.677 21.6684L79.5684 20.8612Z" fill="white"/>
<path d="M84.433 7.66971L86.3931 7.41912L87.6556 17.2947L93.0082 6.57339L94.874 6.33485L96.5607 19.5275L94.6195 19.7756L93.3569 9.90003L88.0043 20.6214L86.1197 20.8623L84.433 7.66971Z" fill="white"/>
<path d="M113.18 18.2658L113.042 21.2456L111.125 21.1568L111.186 19.8472L100.519 19.3529L100.458 20.6625L98.5413 20.5737L98.6794 17.5939L100.217 17.6651C100.595 16.8838 100.859 15.8436 101.008 14.5444C101.158 13.2326 101.292 11.2987 101.41 8.74278L101.533 6.08563L111.82 6.56234L111.282 18.1779L113.18 18.2658ZM102.096 17.7522L109.365 18.089L109.827 8.12473L103.374 7.82569L103.327 8.83161C103.247 10.5524 103.174 11.8551 103.108 12.7397C103.055 13.6121 102.942 14.5326 102.771 15.501C102.6 16.4568 102.375 17.2072 102.096 17.7522Z" fill="white"/>
<path d="M116.486 18.9815L122.799 20.2607L122.456 21.9553L114.169 20.2761L116.811 7.24101L124.911 8.88247L124.567 10.577L118.441 9.33555L117.626 13.3578L121.89 14.2219L121.547 15.9165L117.283 15.0524L116.486 18.9815Z" fill="white"/>
<path d="M134.834 11.8372C136.475 12.4389 137.704 13.5774 138.519 15.2527C139.335 16.928 139.409 18.6754 138.742 20.4949C138.075 22.3144 136.889 23.5996 135.183 24.3504C133.478 25.1012 131.805 25.1757 130.164 24.5739C128.558 23.9852 127.336 22.8489 126.496 21.1649C125.661 19.469 125.575 17.7172 126.237 15.9096C126.9 14.102 128.096 12.8271 129.825 12.085C131.559 11.3311 133.228 11.2485 134.834 11.8372ZM134.18 13.621C133.05 13.2067 131.898 13.2767 130.723 13.8309C129.565 14.3775 128.742 15.3168 128.253 16.6487C127.765 17.9807 127.784 19.2355 128.31 20.4133C128.852 21.5835 129.688 22.3758 130.818 22.79C132.007 23.2261 133.169 23.1665 134.303 22.6111C135.438 22.0557 136.252 21.1061 136.744 19.7623C137.237 18.4185 137.23 17.168 136.724 16.0108C136.217 14.8537 135.369 14.0571 134.18 13.621Z" fill="white"/>
<path d="M154.724 21.8399C156.182 22.8052 157.113 24.1971 157.519 26.0156C157.925 27.8342 157.593 29.5514 156.523 31.1671C155.453 32.7828 154.001 33.7586 152.169 34.0943C150.336 34.4301 148.691 34.1153 147.233 33.1501C145.808 32.2058 144.881 30.8174 144.454 28.9849C144.034 27.1417 144.356 25.4176 145.419 23.8124C146.482 22.2072 147.94 21.2438 149.794 20.922C151.655 20.5897 153.299 20.8957 154.724 21.8399ZM153.675 23.424C152.672 22.7595 151.535 22.5609 150.264 22.8282C149.011 23.092 147.992 23.8152 147.209 24.998C146.425 26.1807 146.153 27.4059 146.392 28.6734C146.649 29.9373 147.279 30.9016 148.282 31.566C149.338 32.2655 150.483 32.4763 151.715 32.1986C152.947 31.9209 153.958 31.1854 154.749 29.992C155.539 28.7987 155.822 27.5806 155.597 26.3376C155.372 25.0946 154.731 24.1234 153.675 23.424Z" fill="white"/>
<path d="M163.245 34.9775C164.309 35.9531 164.893 37.0124 164.997 38.1554C165.11 39.307 164.756 40.331 163.934 41.2275C163.113 42.124 162.123 42.5662 160.966 42.5539C159.819 42.5502 158.713 42.0605 157.648 41.0849L154.342 38.0555L163.328 28.25L169.225 33.6542L168.108 34.8729L163.654 30.7908L161.382 33.2702L163.245 34.9775ZM158.745 39.7192C159.399 40.3182 160.053 40.6348 160.709 40.669C161.383 40.7023 161.973 40.4435 162.477 39.8925C162.982 39.3415 163.185 38.7365 163.084 38.0775C163.002 37.4177 162.633 36.7882 161.98 36.1892L160.201 34.559L156.966 38.0889L158.745 39.7192Z" fill="white"/>
<path d="M175.374 40.1776C176.106 41.0508 176.47 42.0356 176.464 43.132C176.466 44.2381 176.103 45.0964 175.376 45.7071C174.832 46.1631 174.215 46.3833 173.524 46.3678C172.843 46.3442 172.207 46.1088 171.617 45.6616C172.063 46.312 172.271 47.0719 172.24 47.9413C172.209 48.8107 171.859 49.5263 171.189 50.0881C170.277 50.8535 169.221 51.1117 168.02 50.8628C166.836 50.6155 165.809 49.9727 164.938 48.9345C164.051 47.8768 163.606 46.7455 163.603 45.5405C163.601 44.3355 164.031 43.3707 164.895 42.646L166.216 44.1912C165.653 44.6634 165.395 45.2522 165.441 45.9575C165.496 46.6726 165.755 47.3066 166.219 47.8597C166.707 48.4419 167.28 48.8292 167.938 49.0215C168.604 49.2236 169.252 49.06 169.882 48.5308C170.406 48.0911 170.64 47.5227 170.584 46.8255C170.529 46.1283 170.139 45.339 169.416 44.4576L170.624 43.4439C171.382 44.2295 172.02 44.6538 172.536 44.717C173.052 44.7801 173.567 44.5959 174.081 44.1643C174.508 43.8061 174.707 43.3334 174.677 42.7464C174.647 42.1594 174.458 41.6573 174.107 41.2401C173.7 40.755 173.201 40.4461 172.611 40.3135C172.03 40.1727 171.428 40.3629 170.807 40.884L169.515 39.3145C170.408 38.5654 171.404 38.2839 172.502 38.4699C173.619 38.6574 174.576 39.2267 175.374 40.1776Z" fill="white"/>
<path d="M184.292 52.6426C185.192 54.141 185.434 55.7983 185.018 57.6146C184.602 59.4309 183.563 60.838 181.902 61.836C180.241 62.8339 178.51 63.0901 176.711 62.6044C174.913 62.1188 173.563 61.1267 172.663 59.6283C171.782 58.1625 171.544 56.5105 171.947 54.6725C172.361 52.828 173.393 51.4101 175.043 50.4186C176.694 49.4272 178.425 49.1851 180.237 49.6925C182.06 50.1934 183.411 51.1767 184.292 52.6426ZM182.663 53.621C182.044 52.5894 181.103 51.9209 179.84 51.6152C178.595 51.3139 177.365 51.5285 176.149 52.2591C174.933 52.9896 174.16 53.9784 173.83 55.2255C173.518 56.4769 173.672 57.6184 174.292 58.6499C174.944 59.7357 175.886 60.4184 177.118 60.698C178.35 60.9776 179.579 60.7489 180.806 60.0118C182.033 59.2747 182.812 58.2968 183.144 57.078C183.476 55.8591 183.316 54.7068 182.663 53.621Z" fill="white"/>
<path d="M190.839 66.0447C191.382 67.3829 191.454 68.5904 191.057 69.6672C190.665 70.7558 189.905 71.5285 188.778 71.9854C187.651 72.4423 186.568 72.4168 185.528 71.9089C184.493 71.4127 183.705 70.4955 183.162 69.1573L182.22 66.8331L177.571 68.7178L176.829 66.8866L189.154 61.8893L190.839 66.0447ZM184.739 68.3949C185.072 69.2166 185.528 69.7837 186.106 70.0962C186.688 70.4204 187.332 70.4397 188.036 70.1542C188.74 69.8686 189.188 69.4067 189.381 68.7683C189.578 68.1417 189.51 67.4176 189.176 66.5959L188.277 64.3773L183.84 66.1763L184.739 68.3949Z" fill="white"/>
<path d="M190.396 94.4472L188.853 94.6626L187.513 85.0656L189.056 84.8502L190.396 94.4472Z" fill="white"/>
</svg>
